<svg width="111" height="88" viewBox="0 0 111 88" fill="none" xmlns="http://www.w3.org/2000/svg">
<path d="M111 33C111 52.7611 96.5594 84 77 84C57.4406 84 0 96.6515 0 76.8904C0 57.1293 3.04619 0 22.6056 0C42.1651 0 111 13.2389 111 33Z" fill="#FFE3FC"/>
<path d="M85.0156 19.9531H28.1406C25.9436 19.9531 24.1562 21.7405 24.1562 23.9375V28C24.1562 28.6472 24.6809 29.1719 25.3281 29.1719C25.9753 29.1719 26.5 28.6472 26.5 28V23.9375C26.5 23.0328 27.2359 22.2969 28.1406 22.2969H85.0156C85.9203 22.2969 86.6562 23.0328 86.6562 23.9375V47.9609C86.6562 48.6081 87.1809 49.1328 87.8281 49.1328C88.4753 49.1328 89 48.6081 89 47.9609V23.9375C89 21.7405 87.2127 19.9531 85.0156 19.9531Z" fill="black"/>
<path d="M87.8281 51.8086C87.1809 51.8086 86.6562 52.3333 86.6562 52.9805V53.7031H30.0938V43.625C30.0938 42.9778 29.5691 42.4531 28.9219 42.4531H26.5V32.9805C26.5 32.3333 25.9753 31.8086 25.3281 31.8086C24.6809 31.8086 24.1562 32.3333 24.1562 32.9805V42.4531H10.1719C9.52469 42.4531 9 42.9778 9 43.625V57.9219C9 58.5691 9.52469 59.0938 10.1719 59.0938C10.8191 59.0938 11.3438 58.5691 11.3438 57.9219V44.7969H27.75V66.8281H11.3438V63.0781C11.3438 62.4309 10.8191 61.9062 10.1719 61.9062C9.52469 61.9062 9 62.4309 9 63.0781V74.875C9 75.5222 9.52469 76.0469 10.1719 76.0469H28.9219C29.5691 76.0469 30.0938 75.5222 30.0938 74.875V66.0469H50.7188V69.0156H44.8623C42.9237 69.0156 41.3467 70.5927 41.3467 72.5312C41.3467 74.4698 42.9237 76.0469 44.8623 76.0469H68.2998C70.2384 76.0469 71.8155 74.4698 71.8155 72.5312C71.8155 70.5927 70.2384 69.0156 68.2998 69.0156H62.4375V66.0469H85.0156C87.2127 66.0469 89 64.2595 89 62.0625V54.875V52.9805C89 52.3333 88.4753 51.8086 87.8281 51.8086ZM27.75 73.7031H11.3438V69.1719H27.75V73.7031ZM68.2998 71.3594C68.9459 71.3594 69.4717 71.885 69.4717 72.5312C69.4717 73.1775 68.9461 73.7031 68.2998 73.7031H44.8623C44.2161 73.7031 43.6905 73.1775 43.6905 72.5312C43.6905 71.885 44.2161 71.3594 44.8623 71.3594H68.2998ZM53.0625 69.0156V66.0469H60.0938V69.0156H53.0625ZM86.6562 62.0625C86.6562 62.9672 85.9203 63.7031 85.0156 63.7031H30.0938V56.0469H86.6562V62.0625Z" fill="black"/>
<path d="M54.7392 27.6094H35.1357C34.4886 27.6094 33.9639 28.1341 33.9639 28.7812C33.9639 29.4284 34.4886 29.9531 35.1357 29.9531H54.7392C55.3864 29.9531 55.9111 29.4284 55.9111 28.7812C55.9111 28.1341 55.3864 27.6094 54.7392 27.6094Z" fill="black"/>
<path d="M21.8906 70.2656H17.2031C16.5559 70.2656 16.0312 70.7903 16.0312 71.4375C16.0312 72.0847 16.5559 72.6094 17.2031 72.6094H21.8906C22.5378 72.6094 23.0625 72.0847 23.0625 71.4375C23.0625 70.7903 22.5378 70.2656 21.8906 70.2656Z" fill="black"/>
<path d="M77.75 32.2188H35.1357C34.4886 32.2188 33.9639 32.7434 33.9639 33.3906C33.9639 34.0378 34.4886 34.5625 35.1357 34.5625H77.75C78.3972 34.5625 78.9218 34.0378 78.9218 33.3906C78.9218 32.7434 78.3972 32.2188 77.75 32.2188Z" fill="black"/>
<path d="M77.75 37.1578H35.1357C34.4886 37.1578 33.9639 37.6825 33.9639 38.3297C33.9639 38.9769 34.4886 39.5016 35.1357 39.5016H77.75C78.3972 39.5016 78.9218 38.9769 78.9218 38.3297C78.9218 37.6825 78.3972 37.1578 77.75 37.1578Z" fill="black"/>
</svg>
