<svg width="78" height="67" viewBox="0 0 78 67" fill="none" xmlns="http://www.w3.org/2000/svg">
<path d="M78 41.027C78 55.4182 47.7653 66.5302 33.507 66.5302C19.2488 66.5302 0 70.3875 0 55.9963C0 41.605 2.22058 0 16.4789 0C30.7371 0 78 26.6357 78 41.027Z" fill="#FBF4B6"/>
<path d="M58.5098 17.4707H22.9629C21.5897 17.4707 20.4727 18.5878 20.4727 19.9609V22.5C20.4727 22.9045 20.8006 23.2324 21.2051 23.2324C21.6096 23.2324 21.9375 22.9045 21.9375 22.5V19.9609C21.9375 19.3955 22.3975 18.9355 22.9629 18.9355H58.5098C59.0752 18.9355 59.5352 19.3955 59.5352 19.9609V34.9756C59.5352 35.3801 59.8631 35.708 60.2676 35.708C60.6721 35.708 61 35.3801 61 34.9756V19.9609C61 18.5878 59.8829 17.4707 58.5098 17.4707Z" fill="black"/>
<path d="M60.2676 37.3804C59.8631 37.3804 59.5352 37.7083 59.5352 38.1128V38.5645H24.1836V32.2656C24.1836 31.8611 23.8557 31.5332 23.4512 31.5332H21.9375V25.6128C21.9375 25.2083 21.6096 24.8804 21.2051 24.8804C20.8006 24.8804 20.4727 25.2083 20.4727 25.6128V31.5332H11.7324C11.3279 31.5332 11 31.8611 11 32.2656V41.2012C11 41.6057 11.3279 41.9336 11.7324 41.9336C12.1369 41.9336 12.4648 41.6057 12.4648 41.2012V32.998H22.7188V46.7676H12.4648V44.4238C12.4648 44.0193 12.1369 43.6914 11.7324 43.6914C11.3279 43.6914 11 44.0193 11 44.4238V51.7969C11 52.2014 11.3279 52.5293 11.7324 52.5293H23.4512C23.8557 52.5293 24.1836 52.2014 24.1836 51.7969V46.2793H37.0742V48.1348H33.414C32.2023 48.1348 31.2167 49.1204 31.2167 50.332C31.2167 51.5437 32.2023 52.5293 33.414 52.5293H48.0624C49.274 52.5293 50.2597 51.5437 50.2597 50.332C50.2597 49.1204 49.274 48.1348 48.0624 48.1348H44.3984V46.2793H58.5098C59.8829 46.2793 61 45.1622 61 43.7891V39.2969V38.1128C61 37.7083 60.6721 37.3804 60.2676 37.3804ZM22.7188 51.0645H12.4648V48.2324H22.7188V51.0645ZM48.0624 49.5996C48.4662 49.5996 48.7948 49.9281 48.7948 50.332C48.7948 50.7359 48.4663 51.0645 48.0624 51.0645H33.414C33.0101 51.0645 32.6815 50.7359 32.6815 50.332C32.6815 49.9281 33.0101 49.5996 33.414 49.5996H48.0624ZM38.5391 48.1348V46.2793H42.9336V48.1348H38.5391ZM59.5352 43.7891C59.5352 44.3545 59.0752 44.8145 58.5098 44.8145H24.1836V40.0293H59.5352V43.7891Z" fill="black"/>
<path d="M39.587 22.2559H27.3348C26.9303 22.2559 26.6024 22.5838 26.6024 22.9883C26.6024 23.3928 26.9303 23.7207 27.3348 23.7207H39.587C39.9915 23.7207 40.3194 23.3928 40.3194 22.9883C40.3194 22.5838 39.9915 22.2559 39.587 22.2559Z" fill="black"/>
<path d="M19.0566 48.916H16.127C15.7225 48.916 15.3945 49.2439 15.3945 49.6484C15.3945 50.0529 15.7225 50.3809 16.127 50.3809H19.0566C19.4611 50.3809 19.7891 50.0529 19.7891 49.6484C19.7891 49.2439 19.4611 48.916 19.0566 48.916Z" fill="black"/>
<path d="M53.9687 25.1367H27.3348C26.9303 25.1367 26.6024 25.4646 26.6024 25.8691C26.6024 26.2736 26.9303 26.6016 27.3348 26.6016H53.9687C54.3732 26.6016 54.7012 26.2736 54.7012 25.8691C54.7012 25.4646 54.3732 25.1367 53.9687 25.1367Z" fill="black"/>
<path d="M53.9687 28.2236H27.3348C26.9303 28.2236 26.6024 28.5516 26.6024 28.9561C26.6024 29.3605 26.9303 29.6885 27.3348 29.6885H53.9687C54.3732 29.6885 54.7012 29.3605 54.7012 28.9561C54.7012 28.5516 54.3732 28.2236 53.9687 28.2236Z" fill="black"/>
</svg>
