<svg width="95" height="91" viewBox="0 0 95 91" fill="none" xmlns="http://www.w3.org/2000/svg">
<path d="M87.4099 32.2326C99.7792 51.0055 97.3706 91 77.6735 91C57.9763 91 0 86.7335 0 67.2372C0 47.7409 10.7201 10.1022 26.3879 3.57252C56.0743 -8.79966 75.0406 13.4597 87.4099 32.2326Z" fill="#E3FFF8"/>
<path d="M85.8281 18.2656H79.5V11.625C79.5 10.9778 78.9755 10.4531 78.3281 10.4531H8.17188C7.52469 10.4531 7 10.9778 7 11.625V62.0417C7 62.6889 7.52469 63.2136 8.17188 63.2136C8.81906 63.2136 9.34375 62.6889 9.34375 62.0417V20.6094H77.1562V32.0286C77.1562 32.6758 77.6808 33.2005 78.3281 33.2005C78.9755 33.2005 79.5 32.6758 79.5 32.0286V28.4219H84.6562V79.2031H76.9219C76.2745 79.2031 75.75 79.7278 75.75 80.375C75.75 81.0222 76.2745 81.5469 76.9219 81.5469H85.8281C86.4755 81.5469 87 81.0222 87 80.375V19.4375C87 18.7903 86.4755 18.2656 85.8281 18.2656ZM24.5 18.2656H9.34375V12.7969H24.5V18.2656ZM77.1562 18.2656H26.8438V12.7969H77.1562V18.2656ZM84.6562 26.0781H79.5V20.6094H84.6562V26.0781Z" fill="black"/>
<path d="M78.3281 35.9219C77.6808 35.9219 77.1562 36.4466 77.1562 37.0938V71.3906H9.34375V67.0938C9.34375 66.4466 8.81906 65.9219 8.17188 65.9219C7.52469 65.9219 7 66.4466 7 67.0938V72.5625C7 73.2097 7.52469 73.7344 8.17188 73.7344H14.5V80.375C14.5 81.0222 15.0247 81.5469 15.6719 81.5469H72.0066C72.6539 81.5469 73.1784 81.0222 73.1784 80.375C73.1784 79.7278 72.6539 79.2031 72.0066 79.2031H16.8438V73.7344H78.3281C78.9755 73.7344 79.5 73.2097 79.5 72.5625V37.0938C79.5 36.4466 78.9755 35.9219 78.3281 35.9219Z" fill="black"/>
<path d="M54.9688 56.8073H29.9688C27.5994 56.8073 25.6719 58.7348 25.6719 61.1042V64.2292C25.6719 66.5986 27.5994 68.5261 29.9688 68.5261H54.9688C57.338 68.5261 59.2656 66.5986 59.2656 64.2292V61.1042C59.2656 58.7348 57.338 56.8073 54.9688 56.8073ZM56.9219 64.2292C56.9219 65.3062 56.0458 66.1823 54.9688 66.1823H29.9688C28.8917 66.1823 28.0156 65.3062 28.0156 64.2292V61.1042C28.0156 60.0272 28.8917 59.1511 29.9688 59.1511H54.9688C56.0458 59.1511 56.9219 60.0272 56.9219 61.1042V64.2292Z" fill="black"/>
<path d="M12.7031 16.7031C13.3503 16.7031 13.875 16.1785 13.875 15.5312C13.875 14.884 13.3503 14.3594 12.7031 14.3594C12.0559 14.3594 11.5312 14.884 11.5312 15.5312C11.5312 16.1785 12.0559 16.7031 12.7031 16.7031Z" fill="black"/>
<path d="M21.4531 16.7031C22.1003 16.7031 22.625 16.1785 22.625 15.5312C22.625 14.884 22.1003 14.3594 21.4531 14.3594C20.8059 14.3594 20.2812 14.884 20.2812 15.5312C20.2812 16.1785 20.8059 16.7031 21.4531 16.7031Z" fill="black"/>
<path d="M17.0781 16.7031C17.7253 16.7031 18.25 16.1785 18.25 15.5312C18.25 14.884 17.7253 14.3594 17.0781 14.3594C16.4309 14.3594 15.9062 14.884 15.9062 15.5312C15.9062 16.1785 16.4309 16.7031 17.0781 16.7031Z" fill="black"/>
<path d="M35.0292 49.5224L27.6631 28.8975C27.4969 28.432 27.0564 28.1208 26.562 28.1197C26.5612 28.1197 26.5605 28.1197 26.5595 28.1197C26.0662 28.1197 25.6255 28.4288 25.4577 28.8928C25.4392 28.9438 23.5953 34.0391 21.7747 39.103C18.0248 49.533 18.0242 49.6196 18.0217 49.9064C18.0159 50.5536 18.5361 51.0828 19.1833 51.0885C19.1867 51.0885 19.1902 51.0885 19.1937 51.0885C19.7567 51.0885 20.2284 50.6907 20.3403 50.1591C20.4659 49.7349 21.3441 47.2533 22.5267 43.9475H30.5495L32.822 50.3107C32.9931 50.7899 33.4444 51.0886 33.9256 51.0886C34.0564 51.0886 34.1895 51.0666 34.3197 51.02C34.9292 50.8024 35.2469 50.1317 35.0292 49.5224ZM23.3666 41.6039C24.3755 38.7924 25.5078 35.6502 26.5528 32.7569L29.7125 41.6039H23.3666Z" fill="black"/>
<path d="M37.9436 28.1198H37.5417C36.8945 28.1198 36.3698 28.6445 36.3698 29.2917V49.9167C36.3698 50.5639 36.8945 51.0885 37.5417 51.0885H37.9436C44.2761 51.0885 49.428 45.9367 49.428 39.6042C49.428 33.2717 44.2761 28.1198 37.9436 28.1198ZM38.7136 48.7125V30.4956C43.3947 30.8879 47.0841 34.8232 47.0841 39.604C47.0841 44.3848 43.3947 48.3203 38.7136 48.7125Z" fill="black"/>
<path d="M59.6334 38.0304H57.1622C55.2606 38.0304 53.7136 36.4834 53.7136 34.5818V33.9122C53.7136 32.0106 55.2606 30.4636 57.1622 30.4636H58.6355C60.537 30.4636 62.0841 32.0106 62.0841 33.9122C62.0841 34.5593 62.6086 35.084 63.2559 35.084C63.9033 35.084 64.4278 34.5593 64.4278 33.9122C64.4278 30.7182 61.8294 28.1198 58.6355 28.1198H57.1622C53.9683 28.1198 51.3698 30.7182 51.3698 33.9122V34.5818C51.3698 37.7757 53.9683 40.3742 57.1622 40.3742H59.6334C60.9847 40.3742 62.0841 41.4736 62.0841 42.8248V45.296C62.0841 47.1976 60.537 48.7448 58.6355 48.7448H57.1622C55.2606 48.7448 53.7136 47.1978 53.7136 45.296V44.5595C53.7136 43.9123 53.1889 43.3876 52.5417 43.3876C51.8944 43.3876 51.3698 43.9123 51.3698 44.5595V45.296C51.3698 48.49 53.9683 51.0885 57.1622 51.0885H58.6355C61.8294 51.0885 64.4278 48.4901 64.4278 45.296V42.8248C64.4278 40.1812 62.277 38.0304 59.6334 38.0304Z" fill="black"/>
</svg>
