<svg width="107" height="92" viewBox="0 0 107 92" fill="none" xmlns="http://www.w3.org/2000/svg">
<path d="M107 56.3355C107 76.0967 65.5242 91.3549 45.9648 91.3549C26.4054 91.3549 0 96.6515 0 76.8904C0 57.1293 3.04619 0 22.6056 0C42.1651 0 107 36.5744 107 56.3355Z" fill="#FBF4B6"/>
<path d="M76.625 30.0292H28.1875C27.5403 30.0292 27.0156 30.5539 27.0156 31.2011V43.7011C27.0156 44.3483 27.5403 44.873 28.1875 44.873H76.625C77.2722 44.873 77.7969 44.3483 77.7969 43.7011V31.2011C77.7969 30.5539 77.2722 30.0292 76.625 30.0292ZM75.4531 42.5292H29.3594V32.373H75.4531V42.5292Z" fill="black"/>
<path d="M76.625 50.3594H28.1875C27.5403 50.3594 27.0156 50.8841 27.0156 51.5312V64.0312C27.0156 64.6784 27.5403 65.2031 28.1875 65.2031H76.625C77.2722 65.2031 77.7969 64.6784 77.7969 64.0312V51.5312C77.7969 50.8841 77.2722 50.3594 76.625 50.3594ZM75.4531 62.8594H29.3594V52.7031H75.4531V62.8594Z" fill="black"/>
<path d="M84.8281 68.2891C84.1809 68.2891 83.6562 68.8138 83.6562 69.4609V74.5781H62.7969V72.9375C62.7969 70.5681 60.8694 68.6406 58.5 68.6406H33.5C31.1306 68.6406 29.2031 70.5681 29.2031 72.9375V74.5781H8.34375V34.5C8.34375 33.8528 7.81906 33.3281 7.17188 33.3281C6.52469 33.3281 6 33.8528 6 34.5V75.75C6 76.3972 6.52469 76.9219 7.17188 76.9219H29.2031V77.625C29.2031 79.9944 31.1306 81.9219 33.5 81.9219H58.5C60.8694 81.9219 62.7969 79.9944 62.7969 77.625V76.9219H84.8281C85.4753 76.9219 86 76.3972 86 75.75V69.4609C86 68.8138 85.4753 68.2891 84.8281 68.2891ZM60.4531 77.625C60.4531 78.702 59.577 79.5781 58.5 79.5781H33.5C32.423 79.5781 31.5469 78.702 31.5469 77.625V72.9375C31.5469 71.8605 32.423 70.9844 33.5 70.9844H58.5C59.577 70.9844 60.4531 71.8605 60.4531 72.9375V77.625Z" fill="black"/>
<path d="M84.8281 12.0781H75.4531H71.0391C70.3919 12.0781 69.8672 12.6028 69.8672 13.25C69.8672 13.8972 70.3919 14.4219 71.0391 14.4219H74.2812V21.4531H8.34375V14.4219H65.9805C66.6277 14.4219 67.1523 13.8972 67.1523 13.25C67.1523 12.6028 66.6277 12.0781 65.9805 12.0781H7.17188C6.52469 12.0781 6 12.6028 6 13.25V22.625V29.4219C6 30.0691 6.52469 30.5938 7.17188 30.5938C7.81906 30.5938 8.34375 30.0691 8.34375 29.4219V23.7969H75.4531H83.6562V64.4219C83.6562 65.0691 84.1809 65.5938 84.8281 65.5938C85.4753 65.5938 86 65.0691 86 64.4219V22.625V13.25C86 12.6028 85.4753 12.0781 84.8281 12.0781ZM83.6562 21.4531H76.625V14.4219H83.6562V21.4531Z" fill="black"/>
<path d="M20.0345 35.5253C20.6831 34.794 21.0781 33.8331 21.0781 32.7811C21.0781 30.4979 19.2206 28.6404 16.9375 28.6404C14.6544 28.6404 12.7969 30.4981 12.7969 32.7812C12.7969 33.8333 13.1919 34.7942 13.8405 35.5254C12.3636 36.5229 11.3906 38.2125 11.3906 40.125V44.5C11.3906 45.1472 11.9153 45.6718 12.5625 45.6718H21.3125C21.9597 45.6718 22.4844 45.1472 22.4844 44.5V40.125C22.4844 38.2125 21.5114 36.5229 20.0345 35.5253ZM16.9375 30.9843C17.9283 30.9843 18.7344 31.7904 18.7344 32.7812C18.7344 33.772 17.9283 34.5781 16.9375 34.5781C15.9467 34.5781 15.1406 33.772 15.1406 32.7812C15.1406 31.7904 15.9467 30.9843 16.9375 30.9843ZM20.1406 43.3281H13.7344V40.125C13.7344 38.3587 15.1713 36.9218 16.9375 36.9218C18.7038 36.9218 20.1406 38.3587 20.1406 40.125V43.3281Z" fill="black"/>
<path d="M20.0345 56.1503C20.6831 55.419 21.0781 54.4581 21.0781 53.4061C21.0781 51.1229 19.2206 49.2654 16.9375 49.2654C14.6544 49.2654 12.7969 51.1231 12.7969 53.4062C12.7969 54.4583 13.1919 55.4192 13.8405 56.1504C12.3636 57.1479 11.3906 58.8375 11.3906 60.75V65.125C11.3906 65.7722 11.9153 66.2968 12.5625 66.2968H21.3125C21.9597 66.2968 22.4844 65.7722 22.4844 65.125V60.75C22.4844 58.8375 21.5114 57.1479 20.0345 56.1503ZM16.9375 51.6093C17.9283 51.6093 18.7344 52.4154 18.7344 53.4062C18.7344 54.397 17.9283 55.2031 16.9375 55.2031C15.9467 55.2031 15.1406 54.397 15.1406 53.4062C15.1406 52.4154 15.9467 51.6093 16.9375 51.6093ZM20.1406 63.9531H13.7344V60.75C13.7344 58.9837 15.1713 57.5468 16.9375 57.5468C18.7038 57.5468 20.1406 58.9837 20.1406 60.75V63.9531Z" fill="black"/>
<path d="M81.8759 17.9375L82.2973 17.5161C82.755 17.0586 82.755 16.3164 82.2973 15.8589C81.8397 15.4012 81.0976 15.4012 80.6401 15.8589L80.2187 16.2803L79.7973 15.8589C79.3397 15.4012 78.5976 15.4012 78.1401 15.8589C77.6825 16.3166 77.6825 17.0586 78.1401 17.5161L78.5615 17.9375L78.1401 18.3589C77.6825 18.8166 77.6825 19.5586 78.1401 20.0161C78.3689 20.2448 78.6689 20.3594 78.9687 20.3594C79.2686 20.3594 79.5686 20.245 79.7973 20.0161L80.2187 19.5947L80.6401 20.0161C80.8689 20.2448 81.1689 20.3594 81.4687 20.3594C81.7686 20.3594 82.0686 20.245 82.2973 20.0161C82.755 19.5584 82.755 18.8164 82.2973 18.3589L81.8759 17.9375Z" fill="black"/>
</svg>
