<svg width="76" height="66" viewBox="0 0 76 66" fill="none" xmlns="http://www.w3.org/2000/svg">
<path d="M64.7206 3.26595C73.5426 9.17985 77.1339 24.4038 73.894 37.832C70.6345 51.2408 60.5438 62.8734 49.5162 65.4302C38.5081 67.9871 26.5632 61.4876 17.3118 54.9101C8.06032 48.3326 1.48281 41.6966 0.233666 34.3774C-1.03499 27.0387 3.02472 19.0168 8.50923 13.8641C13.9937 8.71143 20.9226 6.40832 31.3841 3.57824C41.8652 0.728633 55.918 -2.64795 64.7206 3.26595Z" fill="#E6E3FF"/>
<path d="M50.3751 40.0898H31.6251C29.8481 40.0898 28.4024 41.5356 28.4024 43.3125V45.6562C28.4024 47.4332 29.8481 48.8789 31.6251 48.8789H50.3751C52.152 48.8789 53.5977 47.4332 53.5977 45.6562V43.3125C53.5977 41.5356 52.152 40.0898 50.3751 40.0898ZM51.8399 45.6562C51.8399 46.464 51.1828 47.1211 50.3751 47.1211H31.6251C30.8173 47.1211 30.1602 46.464 30.1602 45.6562V43.3125C30.1602 42.5047 30.8173 41.8477 31.6251 41.8477H50.3751C51.1828 41.8477 51.8399 42.5047 51.8399 43.3125V45.6562Z" fill="black"/>
<path d="M50.3751 50.4023H31.6251C29.8481 50.4023 28.4024 51.8481 28.4024 53.625V55.9688C28.4024 57.7457 29.8481 59.1914 31.6251 59.1914H50.3751C52.152 59.1914 53.5977 57.7457 53.5977 55.9688V53.625C53.5977 51.8481 52.152 50.4023 50.3751 50.4023ZM51.8399 55.9688C51.8399 56.7765 51.1828 57.4336 50.3751 57.4336H31.6251C30.8173 57.4336 30.1602 56.7765 30.1602 55.9688V53.625C30.1602 52.8172 30.8173 52.1602 31.6251 52.1602H50.3751C51.1828 52.1602 51.8399 52.8172 51.8399 53.625V55.9688Z" fill="black"/>
<path d="M61.5079 3H20.4922C20.0067 3 19.6133 3.3934 19.6133 3.87891V55.4903C19.6133 55.9758 20.0067 56.3692 20.4922 56.3692C20.9778 56.3692 21.3712 55.9758 21.3712 55.4903V38.4492H56.0001C56.4856 38.4492 56.879 38.0558 56.879 37.5703C56.879 37.0848 56.4856 36.6914 56.0001 36.6914H21.3712V34.9336H60.629V36.6914H59.7501C59.2646 36.6914 58.8712 37.0848 58.8712 37.5703C58.8712 38.0558 59.2646 38.4492 59.7501 38.4492H60.629V61.2422H21.3712V59.25C21.3712 58.7645 20.9778 58.3711 20.4922 58.3711C20.0067 58.3711 19.6133 58.7645 19.6133 59.25V62.1211C19.6133 62.6066 20.0067 63 20.4922 63H61.5079C61.9934 63 62.3868 62.6066 62.3868 62.1211V3.87891C62.3868 3.3934 61.9934 3 61.5079 3ZM21.3712 4.75781H32.7383V8.85938H21.3712V4.75781ZM60.629 33.1758H50.2437V24.023H50.9966C51.6007 24.023 52.1267 23.6768 52.3362 23.1412C52.5322 22.6403 52.3982 22.0758 51.9949 21.7032L41.9983 12.4657C41.4477 11.9573 40.5522 11.9575 40.0019 12.4658L30.0053 21.7032V21.7034C29.6021 22.0759 29.4681 22.6403 29.664 23.1412C29.8736 23.6768 30.3994 24.023 31.0036 24.023H31.7565V25.4414C31.7565 25.9269 32.1499 26.3203 32.6355 26.3203C33.121 26.3203 33.5144 25.9269 33.5144 25.4414V24.023H48.486V33.1758H33.5142V29.1914C33.5142 28.7059 33.1208 28.3125 32.6353 28.3125C32.1498 28.3125 31.7564 28.7059 31.7564 29.1914V33.1758H21.3712V10.6172H60.629V33.1758ZM50.0128 22.2652H31.9873L41.0001 13.9369L50.0128 22.2652ZM60.629 8.85938H34.4962V4.75781H60.629V8.85938Z" fill="black"/>
<path d="M23.8907 7.6875C24.3761 7.6875 24.7696 7.294 24.7696 6.80859C24.7696 6.32319 24.3761 5.92969 23.8907 5.92969C23.4053 5.92969 23.0118 6.32319 23.0118 6.80859C23.0118 7.294 23.4053 7.6875 23.8907 7.6875Z" fill="black"/>
<path d="M27.1719 7.6875C27.6573 7.6875 28.0508 7.294 28.0508 6.80859C28.0508 6.32319 27.6573 5.92969 27.1719 5.92969C26.6865 5.92969 26.293 6.32319 26.293 6.80859C26.293 7.294 26.6865 7.6875 27.1719 7.6875Z" fill="black"/>
<path d="M30.4532 7.6875C30.9386 7.6875 31.3321 7.294 31.3321 6.80859C31.3321 6.32319 30.9386 5.92969 30.4532 5.92969C29.9678 5.92969 29.5743 6.32319 29.5743 6.80859C29.5743 7.294 29.9678 7.6875 30.4532 7.6875Z" fill="black"/>
</svg>
