<svg width="50" height="50" viewBox="0 0 50 50" fill="none" xmlns="http://www.w3.org/2000/svg">
<path d="M29.031 49.6746C28.8227 49.7085 28.6137 49.7398 28.4039 49.7684C28.6137 49.7398 28.8227 49.7085 29.031 49.6746Z" fill="#FF824D"/>
<path d="M29.5311 49.5891C29.4315 49.6074 29.332 49.6242 29.2324 49.6414C29.332 49.6242 29.4315 49.6074 29.5311 49.5891Z" fill="#FF824D"/>
<path d="M27.8454 49.8379C27.6016 49.8654 27.3563 49.8898 27.1103 49.9104C27.3563 49.8898 27.6016 49.8654 27.8454 49.8379Z" fill="#FF824D"/>
<path d="M28.3256 49.7791C28.2085 49.7947 28.0906 49.8092 27.9731 49.8229C28.0906 49.8092 28.2085 49.7947 28.3256 49.7791Z" fill="#FF824D"/>
<path d="M30.2116 49.4541C30.1239 49.4728 30.0358 49.4915 29.9476 49.5094C30.0358 49.4915 30.1239 49.4728 30.2116 49.4541Z" fill="#FF824D"/>
<path d="M31.9008 49.0344C31.8298 49.0546 31.7589 49.0737 31.6879 49.0936C31.7589 49.0737 31.8298 49.0546 31.9008 49.0344Z" fill="#FF824D"/>
<path d="M31.39 49.1741C31.313 49.1943 31.2355 49.2149 31.1581 49.2343C31.2355 49.2149 31.313 49.1947 31.39 49.1741Z" fill="#FF824D"/>
<path d="M30.7216 49.3413C30.64 49.3604 30.5576 49.3783 30.4752 49.3966C30.5576 49.3783 30.64 49.3604 30.7216 49.3413Z" fill="#FF824D"/>
<path d="M27.1023 49.9111C26.9707 49.9222 26.8391 49.9321 26.7071 49.9409C26.8391 49.9321 26.9707 49.9222 27.1023 49.9111Z" fill="#FF824D"/>
<path d="M50 25C50 11.195 38.805 0 25 0C11.195 0 0 11.195 0 25C0 38.805 11.195 50 25 50C25.1469 50 25.293 49.9969 25.4395 49.9943V30.5328H20.0684V24.2733H25.4395V19.6671C25.4395 14.325 28.7006 11.4174 33.466 11.4174C35.7479 11.4174 37.7094 11.5875 38.2812 11.6634V17.2466H34.9953C32.4028 17.2466 31.9008 18.4788 31.9008 20.2866V24.2733H38.0997L37.2917 30.5328H31.9008V49.0341C42.3504 46.0384 50 36.4113 50 25Z" fill="#FF824D"/>
<path d="M26.6518 49.9443C26.3916 49.9611 26.1303 49.9745 25.8682 49.9832C26.1303 49.9745 26.3916 49.9611 26.6518 49.9443Z" fill="#FF824D"/>
<path d="M25.8549 49.9841C25.7168 49.9887 25.5783 49.9921 25.4398 49.9944C25.5783 49.9921 25.7168 49.9887 25.8549 49.9841Z" fill="#FF824D"/>
</svg>
