<svg width="76" height="76" viewBox="0 0 76 76" fill="none" xmlns="http://www.w3.org/2000/svg">
<path d="M67.0284 15.045C75.2078 24.6236 78.598 38.7223 73.7908 47.4398C69.0015 56.1394 56.0149 59.4578 44.2839 64.9466C32.553 70.4354 22.0776 78.0767 16.3556 75.4758C10.6336 72.8569 9.66497 59.9959 8.51699 48.8927C7.35106 37.7895 6.00577 28.4621 10.0237 19.8343C14.0417 11.2065 23.4408 3.26025 34.6337 1.82527C45.8265 0.390282 58.8311 5.4486 67.0284 15.045Z" fill="#E3FFFA"/>
<path d="M40.591 19.9656L34.2629 16.45C33.9906 16.2988 33.6588 16.3027 33.3903 16.4609C33.122 16.6189 32.9572 16.907 32.9572 17.2184V24.2496C32.9571 24.561 33.1219 24.8492 33.3902 25.0071C33.5277 25.088 33.6818 25.1285 33.836 25.1285C33.983 25.1285 34.13 25.0917 34.2629 25.018L40.591 21.5024C40.8701 21.3474 41.043 21.0532 41.043 20.734C41.043 20.4148 40.87 20.1208 40.591 19.9656ZM34.7149 22.756V18.7121L38.3544 20.734L34.7149 22.756Z" fill="black"/>
<path d="M53.875 18.8788H48.7188C48.2332 18.8788 47.8398 19.2722 47.8398 19.7577C47.8398 20.2432 48.2332 20.6366 48.7188 20.6366H53.875C54.3605 20.6366 54.7539 20.2432 54.7539 19.7577C54.7539 19.2722 54.3605 18.8788 53.875 18.8788Z" fill="black"/>
<path d="M53.875 21.535H48.7188C48.2332 21.535 47.8398 21.9284 47.8398 22.4139C47.8398 22.8994 48.2332 23.2928 48.7188 23.2928H53.875C54.3605 23.2928 54.7539 22.8994 54.7539 22.4139C54.7539 21.9284 54.3605 21.535 53.875 21.535Z" fill="black"/>
<path d="M53.875 24.1912H48.7188C48.2332 24.1912 47.8398 24.5846 47.8398 25.0701C47.8398 25.5556 48.2332 25.949 48.7188 25.949H53.875C54.3605 25.949 54.7539 25.5556 54.7539 25.0701C54.7539 24.5846 54.3605 24.1912 53.875 24.1912Z" fill="black"/>
<path d="M53.875 26.8475H48.7188C48.2332 26.8475 47.8398 27.2409 47.8398 27.7264C47.8398 28.2119 48.2332 28.6053 48.7188 28.6053H53.875C54.3605 28.6053 54.7539 28.2119 54.7539 27.7264C54.7539 27.2409 54.3605 26.8475 53.875 26.8475Z" fill="black"/>
<path d="M64.3633 29.4257H58.0352V16.9452C58.0352 16.4597 57.6418 16.0663 57.1562 16.0663H46.3164V15.5682C46.3164 15.5583 46.3152 15.5486 46.315 15.5386C46.3146 15.5287 46.3142 15.519 46.3136 15.5092C46.311 15.4717 46.3069 15.4344 46.2998 15.3979C46.2996 15.3975 46.2996 15.397 46.2995 15.3967C46.2921 15.3595 46.2815 15.3232 46.2694 15.2875C46.2663 15.2782 46.263 15.2692 46.2596 15.26C46.2469 15.2263 46.2329 15.1932 46.2161 15.1612C46.215 15.1593 46.2143 15.1573 46.2133 15.1553C46.1955 15.1219 46.1747 15.0899 46.1527 15.0589C46.147 15.051 46.1412 15.0431 46.1352 15.0353C46.1117 15.0045 46.0868 14.9745 46.0591 14.9468L41.5766 10.4644C41.5489 10.4367 41.519 10.4118 41.4882 10.3883C41.4802 10.3822 41.4723 10.3764 41.4643 10.3706C41.4334 10.3487 41.4017 10.3281 41.3685 10.3104C41.3657 10.3089 41.3628 10.3078 41.36 10.3063C41.3291 10.2902 41.2971 10.2766 41.2647 10.2643C41.2547 10.2606 41.2448 10.257 41.2347 10.2536C41.2005 10.2421 41.1659 10.232 41.1304 10.2248C41.1266 10.2241 41.1229 10.2236 41.1191 10.2229C41.0854 10.2164 41.0512 10.2125 41.0166 10.2101C41.0052 10.2093 40.9939 10.2088 40.9824 10.2084C40.9732 10.2082 40.9643 10.207 40.9552 10.207H28.5625C28.077 10.207 27.6836 10.6004 27.6836 11.0859V14.1914H16.8438C16.3582 14.1914 15.9648 14.5848 15.9648 15.0703V29.4258H9.63672C8.18289 29.4257 7 30.6086 7 32.0624C7 33.5162 8.18289 34.6991 9.63672 34.6991H10.6315L25.7549 43.4411C25.8934 43.5212 26.0446 43.5592 26.1939 43.5592C26.4974 43.5592 26.7927 43.4017 26.9556 43.12C27.1986 42.6997 27.0549 42.1622 26.6345 41.9193L14.1439 34.6991H51.9218C52.4073 34.6991 52.8007 34.3057 52.8007 33.8202C52.8007 33.3347 52.4073 32.9413 51.9218 32.9413H9.63672C9.15203 32.9413 8.75781 32.5471 8.75781 32.0624C8.75781 31.5777 9.15203 31.1835 9.63672 31.1835H64.3633C64.848 31.1835 65.2422 31.5777 65.2422 32.0624C65.2422 32.5471 64.848 32.9413 64.3633 32.9413H55.789C55.3035 32.9413 54.9101 33.3347 54.9101 33.8202C54.9101 34.3057 55.3035 34.6991 55.789 34.6991H59.8561L42.6236 44.66H31.3763L29.8643 43.7862C29.4441 43.5431 28.9064 43.6869 28.6636 44.1073C28.4207 44.5275 28.5645 45.0652 28.9847 45.308L30.2616 46.046V50.5361C28.9451 50.6823 27.9179 51.8013 27.9179 53.1561C27.9179 54.61 29.1007 55.7928 30.5546 55.7928H43.4452C44.899 55.7928 46.0819 54.61 46.0819 53.1561C46.0819 51.8013 45.0546 50.6823 43.7382 50.5361V46.046L63.3685 34.6991H64.3633C65.8171 34.6991 67 33.5162 67 32.0624C67 30.6086 65.8171 29.4257 64.3633 29.4257ZM41.834 13.2077L43.3157 14.6895H41.834V13.2077ZM17.7227 15.9491H27.6836V17.7069H17.7227V15.9491ZM44.5586 29.4257H29.4414V28.078C29.4414 27.5925 29.048 27.1991 28.5625 27.1991C28.077 27.1991 27.6836 27.5925 27.6836 28.078V29.4257H17.7227V19.4647H27.6836V24.2497C27.6836 24.7352 28.077 25.1286 28.5625 25.1286C29.048 25.1286 29.4414 24.7352 29.4414 24.2497V11.9647H40.0762V15.5682C40.0762 16.0537 40.4696 16.4471 40.9551 16.4471H44.5586V29.4257ZM56.2773 29.4257H46.3164V17.8241H56.2773V29.4257ZM32.0195 46.4178H41.9805V50.5194H32.0195V46.4178ZM44.3242 53.1561C44.3242 53.6408 43.93 54.035 43.4453 54.035H30.5547C30.07 54.035 29.6758 53.6408 29.6758 53.1561C29.6758 52.6714 30.07 52.2772 30.5547 52.2772H43.4453C43.93 52.2772 44.3242 52.6714 44.3242 53.1561Z" fill="black"/>
</svg>
