<svg width="92" height="105" viewBox="0 0 92 105" fill="none" xmlns="http://www.w3.org/2000/svg">
<path d="M79.4265 19.1238C90.3082 32.4702 94.8183 52.1149 88.423 64.2616C82.0515 76.3833 64.7745 81.007 49.1679 88.655C33.5613 96.3029 19.6252 106.95 12.0128 103.326C4.40042 99.677 3.1118 81.7568 1.58455 66.286C0.0334414 50.8152 -1.7563 37.8187 3.58907 25.797C8.93444 13.7752 21.4388 2.70322 36.3295 0.703764C51.2201 -1.2957 68.521 5.7524 79.4265 19.1238Z" fill="#E3FFFA"/>
<path d="M81.9836 80.1144V74.8896C81.9836 74.2424 81.4589 73.7177 80.8117 73.7177C80.1645 73.7177 79.6399 74.2424 79.6399 74.8896V79.1081H4.35656V44.8127C4.35656 44.1656 3.83187 43.6409 3.18469 43.6409C2.5375 43.6409 2.01281 44.1656 2.01281 44.8127L2 83.0924C2 84.7724 3.36687 86.1391 5.04671 86.1391H5.05937H78.9372H78.9499C80.6299 86.1391 81.9966 84.7722 81.9966 83.0924V80.28C81.9966 80.2236 81.9913 80.1686 81.9836 80.1144ZM79.6399 83.0927C79.6399 83.4802 79.3245 83.7955 78.937 83.7955H5.05937C4.67187 83.7955 4.35656 83.4802 4.35656 83.0927V81.4517H79.6397V83.0927H79.6399Z" fill="black"/>
<path d="M81.9967 20.9076C81.9967 20.9628 82.0041 20.8545 81.9967 20.9076V20.9076Z" fill="black"/>
<path d="M78.95 17.8608H78.9374H5.05937H5.04671C3.36687 17.8608 2 19.2277 2 20.9076L2.01297 39.735C2.01297 40.3821 2.53766 40.9068 3.18484 40.9068C3.83203 40.9068 4.35671 40.3821 4.35671 39.735V37.3914H37.9929L22.3479 53.0363C22.3353 53.049 22.3242 53.0627 22.3121 53.0757C22.3032 53.0856 22.294 53.0951 22.2854 53.1051C22.2546 53.141 22.2257 53.1784 22.1998 53.2174C22.1976 53.2207 22.1959 53.2241 22.1939 53.2274C22.1701 53.2641 22.1489 53.3021 22.1293 53.341C22.1232 53.3531 22.1178 53.3652 22.1122 53.3776C22.0959 53.4129 22.0815 53.449 22.0689 53.4859C22.0657 53.4949 22.062 53.5038 22.0592 53.5131C22.0448 53.5588 22.0334 53.6054 22.0247 53.6527C22.024 53.6563 22.0226 53.6598 22.022 53.6634L19.9214 65.7041C19.92 65.7124 19.9198 65.7207 19.9186 65.729C19.9164 65.7441 19.9145 65.7593 19.9131 65.7718C19.9126 65.7758 19.9128 65.7799 19.9125 65.7841C19.9084 65.8229 19.9062 65.8616 19.9061 65.9002C19.9061 65.9068 19.9062 65.9132 19.9062 65.9197C19.9067 65.9594 19.909 65.999 19.9136 66.0382C19.9142 66.0435 19.915 66.0488 19.9156 66.0541C19.9207 66.0943 19.9276 66.1338 19.9368 66.173C19.9378 66.1774 19.939 66.1816 19.9401 66.1858C19.95 66.2257 19.9617 66.2649 19.9756 66.3035C19.9768 66.3069 19.9782 66.3102 19.9795 66.3137C19.994 66.3527 20.0104 66.391 20.029 66.4283C20.0304 66.431 20.0318 66.4337 20.0332 66.4363C20.0525 66.474 20.0734 66.5107 20.0967 66.5463C20.0981 66.5483 20.0997 66.5504 20.1011 66.5526C20.1248 66.5883 20.1503 66.623 20.1781 66.6563C20.1793 66.6579 20.1809 66.6594 20.1822 66.661C20.2032 66.686 20.2239 66.7111 20.2472 66.7344C20.4689 66.9561 20.7678 67.0777 21.0759 67.0777C21.1428 67.0777 21.21 67.0719 21.277 67.0604L33.3285 64.961C33.3767 64.9524 33.4242 64.9405 33.471 64.9258C33.4792 64.9233 33.4868 64.9202 33.4948 64.9176C33.534 64.9044 33.5724 64.889 33.6103 64.8715C33.6196 64.8671 33.629 64.863 33.6382 64.8585C33.7231 64.8166 33.8038 64.764 33.8785 64.7002C33.8892 64.6912 33.8993 64.6815 33.9096 64.6721C33.9226 64.6602 33.936 64.6494 33.9485 64.6369L38.0682 60.5173C38.5259 60.0596 38.5259 59.3176 38.0682 58.8601C37.6106 58.4024 36.8685 58.4024 36.411 58.8601L33.1201 62.151L31.4628 60.4937L49.6921 42.2643L51.3494 43.9217L40.0763 55.1948C39.6187 55.6524 39.6187 56.3945 40.0763 56.852C40.534 57.3096 41.276 57.3096 41.7335 56.852L53.0551 45.5304C53.2112 45.6049 53.3829 45.6459 53.5591 45.6459C53.8699 45.6459 54.168 45.5224 54.3877 45.3026L59.4699 40.2204C59.9275 39.7628 59.9275 39.0207 59.4699 38.5632L58.6413 37.7346L58.9847 37.3912H79.6405V69.8118C79.6405 70.459 80.1652 70.9836 80.8123 70.9836C81.4595 70.9836 81.9842 70.459 81.9842 69.8118L81.9972 20.9076C81.9967 19.2277 80.6298 17.8608 78.95 17.8608ZM4.35656 20.9075C4.35656 20.52 4.67187 20.2047 5.05937 20.2047H30.2799V30.3603H4.35656V20.9075ZM4.35656 35.0476V32.704H41.5884C41.3101 33.0586 41.2655 33.5357 41.4537 33.9303L40.3362 35.0478H4.35656V35.0476ZM43.0629 35.6356L44.7202 37.2929L26.491 55.5221L24.8337 53.8649L43.0629 35.6356ZM22.5175 64.4651L22.8276 62.6871L24.2965 64.1554L22.5175 64.4651ZM27.1196 63.6637L23.3192 59.8651L23.9431 56.2888L30.6953 63.041L27.1196 63.6637ZM29.8053 58.8366L28.1481 57.1793L46.3774 38.9501L48.0346 40.6073L29.8053 58.8366ZM53.5587 42.817L44.1677 33.4261L47.5919 30.0018C47.5926 30.0011 47.5918 30.0017 47.5926 30.0011L56.9835 39.3918L53.5587 42.817ZM58.3646 34.6965L56.9835 36.0776L50.9071 30.0012L52.2882 28.6201C53.0497 27.8586 54.2887 27.8586 55.0502 28.6201L58.3646 31.9345C59.1261 32.6961 59.1261 33.935 58.3646 34.6965ZM79.64 35.0476H60.9146C61.2399 34.3068 61.3474 33.4928 61.2349 32.704H79.64V35.0476ZM79.64 30.3604H60.1008C60.0746 30.3328 60.049 30.3045 60.0219 30.2773L56.7076 26.9629C55.896 26.1514 54.8171 25.7044 53.6694 25.7044C52.5216 25.7044 51.4429 26.1512 50.6313 26.9629L49.2502 28.344L48.4216 27.5154C47.964 27.0578 47.2219 27.0578 46.7644 27.5154L43.9195 30.3604H32.6237V20.2047H78.9372C79.3247 20.2045 79.64 20.52 79.64 20.9075V30.3604Z" fill="black"/>
<path d="M9.34347 21.7668C7.40503 21.7668 5.828 23.3439 5.828 25.2823C5.828 27.2207 7.40503 28.7978 9.34347 28.7978C11.2819 28.7978 12.8589 27.2207 12.8589 25.2823C12.8589 23.3439 11.2821 21.7668 9.34347 21.7668ZM9.34347 26.4542C8.69722 26.4542 8.17159 25.9286 8.17159 25.2823C8.17159 24.6361 8.69722 24.1104 9.34347 24.1104C9.98971 24.1104 10.5153 24.6361 10.5153 25.2823C10.5153 25.9286 9.98971 26.4542 9.34347 26.4542Z" fill="black"/>
<path d="M17.4681 21.7668C15.5297 21.7668 13.9526 23.3439 13.9526 25.2823C13.9526 27.2207 15.5297 28.7978 17.4681 28.7978C19.4065 28.7978 20.9836 27.2207 20.9836 25.2823C20.9836 23.3439 19.4065 21.7668 17.4681 21.7668ZM17.4681 26.4542C16.8219 26.4542 16.2962 25.9286 16.2962 25.2823C16.2962 24.6361 16.8219 24.1104 17.4681 24.1104C18.1143 24.1104 18.64 24.6361 18.64 25.2823C18.64 25.9286 18.1143 26.4542 17.4681 26.4542Z" fill="black"/>
<path d="M25.4365 21.7668C23.498 21.7668 21.921 23.3439 21.921 25.2823C21.921 27.2207 23.498 28.7978 25.4365 28.7978C27.3749 28.7978 28.9519 27.2207 28.9519 25.2823C28.9519 23.3439 27.3749 21.7668 25.4365 21.7668ZM25.4365 26.4542C24.7902 26.4542 24.2646 25.9286 24.2646 25.2823C24.2646 24.6361 24.7902 24.1104 25.4365 24.1104C26.0827 24.1104 26.6084 24.6361 26.6084 25.2823C26.6084 25.9286 26.0827 26.4542 25.4365 26.4542Z" fill="black"/>
<path d="M62.9348 68.064H21.0616C20.4145 68.064 19.8898 68.5887 19.8898 69.2358C19.8898 69.883 20.4145 70.4077 21.0616 70.4077H62.9348C63.582 70.4077 64.1067 69.883 64.1067 69.2358C64.1067 68.5887 63.582 68.064 62.9348 68.064Z" fill="black"/>
<path d="M53.0615 37.2374L49.7471 33.9231C49.2895 33.4654 48.5474 33.4654 48.0899 33.9231C47.6323 34.3807 47.6323 35.1228 48.0899 35.5803L51.4043 38.8946C51.633 39.1234 51.933 39.2379 52.2329 39.2379C52.5327 39.2379 52.8327 39.1235 53.0615 38.8946C53.519 38.437 53.519 37.6949 53.0615 37.2374Z" fill="black"/>
</svg>
