<svg width="107" height="92" viewBox="0 0 107 92" fill="none" xmlns="http://www.w3.org/2000/svg">
<path d="M107 56.3355C107 76.0967 65.5242 91.3549 45.9648 91.3549C26.4054 91.3549 0 96.6515 0 76.8904C0 57.1293 3.04619 0 22.6056 0C42.1651 0 107 36.5744 107 56.3355Z" fill="#FBF4B6"/>
<path d="M84.0156 14.9531H27.1406C24.9436 14.9531 23.1562 16.7405 23.1562 18.9375V23C23.1562 23.6472 23.6809 24.1719 24.3281 24.1719C24.9753 24.1719 25.5 23.6472 25.5 23V18.9375C25.5 18.0328 26.2359 17.2969 27.1406 17.2969H84.0156C84.9203 17.2969 85.6562 18.0328 85.6562 18.9375V42.9609C85.6562 43.6081 86.1809 44.1328 86.8281 44.1328C87.4753 44.1328 88 43.6081 88 42.9609V18.9375C88 16.7405 86.2127 14.9531 84.0156 14.9531Z" fill="black"/>
<path d="M86.8281 46.8086C86.1809 46.8086 85.6562 47.3333 85.6562 47.9805V48.7031H29.0938V38.625C29.0938 37.9778 28.5691 37.4531 27.9219 37.4531H25.5V27.9805C25.5 27.3333 24.9753 26.8086 24.3281 26.8086C23.6809 26.8086 23.1562 27.3333 23.1562 27.9805V37.4531H9.17188C8.52469 37.4531 8 37.9778 8 38.625V52.9219C8 53.5691 8.52469 54.0938 9.17188 54.0938C9.81906 54.0938 10.3438 53.5691 10.3438 52.9219V39.7969H26.75V61.8281H10.3438V58.0781C10.3438 57.4309 9.81906 56.9062 9.17188 56.9062C8.52469 56.9062 8 57.4309 8 58.0781V69.875C8 70.5222 8.52469 71.0469 9.17188 71.0469H27.9219C28.5691 71.0469 29.0938 70.5222 29.0938 69.875V61.0469H49.7188V64.0156H43.8623C41.9237 64.0156 40.3467 65.5927 40.3467 67.5312C40.3467 69.4698 41.9237 71.0469 43.8623 71.0469H67.2998C69.2384 71.0469 70.8155 69.4698 70.8155 67.5312C70.8155 65.5927 69.2384 64.0156 67.2998 64.0156H61.4375V61.0469H84.0156C86.2127 61.0469 88 59.2595 88 57.0625V49.875V47.9805C88 47.3333 87.4753 46.8086 86.8281 46.8086ZM26.75 68.7031H10.3438V64.1719H26.75V68.7031ZM67.2998 66.3594C67.9459 66.3594 68.4717 66.885 68.4717 67.5312C68.4717 68.1775 67.9461 68.7031 67.2998 68.7031H43.8623C43.2161 68.7031 42.6905 68.1775 42.6905 67.5312C42.6905 66.885 43.2161 66.3594 43.8623 66.3594H67.2998ZM52.0625 64.0156V61.0469H59.0938V64.0156H52.0625ZM85.6562 57.0625C85.6562 57.9672 84.9203 58.7031 84.0156 58.7031H29.0938V51.0469H85.6562V57.0625Z" fill="black"/>
<path d="M53.7392 22.6094H34.1358C33.4886 22.6094 32.9639 23.1341 32.9639 23.7812C32.9639 24.4284 33.4886 24.9531 34.1358 24.9531H53.7392C54.3864 24.9531 54.9111 24.4284 54.9111 23.7812C54.9111 23.1341 54.3864 22.6094 53.7392 22.6094Z" fill="black"/>
<path d="M20.8906 65.2656H16.2031C15.5559 65.2656 15.0312 65.7903 15.0312 66.4375C15.0312 67.0847 15.5559 67.6094 16.2031 67.6094H20.8906C21.5378 67.6094 22.0625 67.0847 22.0625 66.4375C22.0625 65.7903 21.5378 65.2656 20.8906 65.2656Z" fill="black"/>
<path d="M76.75 27.2188H34.1358C33.4886 27.2188 32.9639 27.7434 32.9639 28.3906C32.9639 29.0378 33.4886 29.5625 34.1358 29.5625H76.75C77.3972 29.5625 77.9219 29.0378 77.9219 28.3906C77.9219 27.7434 77.3972 27.2188 76.75 27.2188Z" fill="black"/>
<path d="M76.75 32.1578H34.1358C33.4886 32.1578 32.9639 32.6825 32.9639 33.3297C32.9639 33.9769 33.4886 34.5016 34.1358 34.5016H76.75C77.3972 34.5016 77.9219 33.9769 77.9219 33.3297C77.9219 32.6825 77.3972 32.1578 76.75 32.1578Z" fill="black"/>
</svg>
