<svg width="111" height="88" viewBox="0 0 111 88" fill="none" xmlns="http://www.w3.org/2000/svg">
<path d="M111 33C111 52.7611 96.5594 84 77 84C57.4406 84 0 96.6515 0 76.8904C0 57.1293 3.04619 0 22.6056 0C42.1651 0 111 13.2389 111 33Z" fill="#FFE3FC"/>
<path d="M60.5202 28.3065C60.4613 28.2367 60.3939 28.1734 60.3188 28.1183C60.0853 27.9465 59.7997 27.8706 59.5166 27.8969C59.4355 27.9044 59.3545 27.919 59.2752 27.9439L34.4461 35.7031H26.8125C24.4431 35.7031 22.5156 37.6306 22.5156 40V49.375C22.5156 51.7444 24.4431 53.6719 26.8125 53.6719H28.7656V65.7812C28.7656 67.7198 30.3427 69.2969 32.2813 69.2969C34.2198 69.2969 35.7969 67.7198 35.7969 65.7812V54.0939L54.5802 59.9637C54.583 59.9647 54.5853 59.9661 54.5881 59.967L58.9844 61.3401L59.2755 61.4311C59.39 61.4669 59.5078 61.4844 59.6248 61.4844C59.8716 61.4844 60.1155 61.4064 60.3191 61.2565C60.528 61.103 60.6755 60.8858 60.747 60.6428C60.7655 60.5801 60.7806 60.5164 60.7884 60.4509C60.7939 60.4053 60.7966 60.359 60.7966 60.3123V29.0625C60.7966 28.783 60.6969 28.5158 60.5202 28.3065ZM33.4531 65.7812C33.4531 66.4275 32.9275 66.9531 32.2813 66.9531C31.635 66.9531 31.1094 66.4275 31.1094 65.7812V53.6719H33.4531V65.7812ZM33.4531 40.3906H29C28.3528 40.3906 27.8281 40.9153 27.8281 41.5625C27.8281 42.2097 28.3528 42.7344 29 42.7344H33.4531V45.8594H29C28.3528 45.8594 27.8281 46.384 27.8281 47.0312C27.8281 47.6784 28.3528 48.2031 29 48.2031H33.4531V51.3281H29.9375H26.8125C25.7355 51.3281 24.8594 50.452 24.8594 49.375V40C24.8594 38.923 25.7355 38.0469 26.8125 38.0469H33.4531V40.3906ZM53.7656 57.2536L35.7969 51.6383V37.7365L53.7656 32.1212V57.2536ZM58.4531 58.7184L56.1094 57.9861V31.3895L58.4531 30.6567V58.7184Z" fill="black"/>
<path d="M79.625 31.4844H68.6875C66.7491 31.4844 65.1719 33.0614 65.1719 35C65.1719 36.9386 66.7491 38.5156 68.6875 38.5156H79.625C81.5634 38.5156 83.1406 36.9386 83.1406 35C83.1406 33.0614 81.5634 31.4844 79.625 31.4844ZM79.625 36.1719H68.6875C68.0412 36.1719 67.5156 35.6463 67.5156 35C67.5156 34.3537 68.0412 33.8281 68.6875 33.8281H79.625C80.2712 33.8281 80.7969 34.3537 80.7969 35C80.7969 35.6463 80.2712 36.1719 79.625 36.1719Z" fill="black"/>
<path d="M79.625 41.1719H68.6875C66.7491 41.1719 65.1719 42.7489 65.1719 44.6875C65.1719 46.6261 66.7491 48.2031 68.6875 48.2031H79.625C81.5634 48.2031 83.1406 46.6261 83.1406 44.6875C83.1406 42.7489 81.5634 41.1719 79.625 41.1719ZM79.625 45.8594H68.6875C68.0412 45.8594 67.5156 45.3338 67.5156 44.6875C67.5156 44.0412 68.0412 43.5156 68.6875 43.5156H79.625C80.2712 43.5156 80.7969 44.0412 80.7969 44.6875C80.7969 45.3338 80.2712 45.8594 79.625 45.8594Z" fill="black"/>
<path d="M79.625 50.8594H68.6875C66.7491 50.8594 65.1719 52.4364 65.1719 54.375C65.1719 56.3136 66.7491 57.8906 68.6875 57.8906H79.625C81.5634 57.8906 83.1406 56.3136 83.1406 54.375C83.1406 52.4364 81.5634 50.8594 79.625 50.8594ZM79.625 55.5469H68.6875C68.0412 55.5469 67.5156 55.0213 67.5156 54.375C67.5156 53.7287 68.0412 53.2031 68.6875 53.2031H79.625C80.2712 53.2031 80.7969 53.7287 80.7969 54.375C80.7969 55.0213 80.2712 55.5469 79.625 55.5469Z" fill="black"/>
<path d="M92.8281 13.3594H89C88.3527 13.3594 87.8281 13.8841 87.8281 14.5312C87.8281 15.1784 88.3527 15.7031 89 15.7031H91.6562V21.1719H33.8438V15.7031H84.052C84.6994 15.7031 85.2239 15.1784 85.2239 14.5312C85.2239 13.8841 84.6994 13.3594 84.052 13.3594H32.6719H15.1719C14.5247 13.3594 14 13.8841 14 14.5312V22.3438V24.9219C14 25.5691 14.5247 26.0938 15.1719 26.0938C15.8191 26.0938 16.3438 25.5691 16.3438 24.9219V23.5156H32.6719H91.6562V64.948C91.6562 65.5952 92.1808 66.1198 92.8281 66.1198C93.4755 66.1198 94 65.5952 94 64.948V22.3438V14.5312C94 13.8841 93.4755 13.3594 92.8281 13.3594ZM31.5 21.1719H16.3438V15.7031H31.5V21.1719Z" fill="black"/>
<path d="M92.8281 68.8802C92.1808 68.8802 91.6562 69.4048 91.6562 70.052V74.2969H16.3438V29.9805C16.3438 29.3333 15.8191 28.8086 15.1719 28.8086C14.5247 28.8086 14 29.3333 14 29.9805V75.4688C14 76.1159 14.5247 76.6406 15.1719 76.6406H92.8281C93.4755 76.6406 94 76.1159 94 75.4688V70.052C94 69.4048 93.4755 68.8802 92.8281 68.8802Z" fill="black"/>
<path d="M19.7031 19.6094C20.3503 19.6094 20.875 19.0847 20.875 18.4375C20.875 17.7903 20.3503 17.2656 19.7031 17.2656C19.0559 17.2656 18.5312 17.7903 18.5312 18.4375C18.5312 19.0847 19.0559 19.6094 19.7031 19.6094Z" fill="black"/>
<path d="M28.4531 19.6094C29.1003 19.6094 29.625 19.0847 29.625 18.4375C29.625 17.7903 29.1003 17.2656 28.4531 17.2656C27.8059 17.2656 27.2812 17.7903 27.2812 18.4375C27.2812 19.0847 27.8059 19.6094 28.4531 19.6094Z" fill="black"/>
<path d="M24.0781 19.6094C24.7253 19.6094 25.25 19.0847 25.25 18.4375C25.25 17.7903 24.7253 17.2656 24.0781 17.2656C23.4309 17.2656 22.9062 17.7903 22.9062 18.4375C22.9062 19.0847 23.4309 19.6094 24.0781 19.6094Z" fill="black"/>
</svg>
