<svg width="58" height="59" viewBox="0 0 58 59" fill="none" xmlns="http://www.w3.org/2000/svg">
<path d="M53.366 19.8354C60.9178 31.388 59.4473 56 47.4217 56C35.3961 56 0 53.3745 0 41.3767C0 29.379 6.54489 6.21676 16.1105 2.19848C34.2348 -5.41518 45.8142 8.28289 53.366 19.8354Z" fill="#E3FFF8"/>
<path d="M49.2676 16.666H45.3125V12.5156C45.3125 12.1111 44.9847 11.7832 44.5801 11.7832H0.732422C0.32793 11.7832 0 12.1111 0 12.5156V44.0261C0 44.4306 0.32793 44.7585 0.732422 44.7585C1.13691 44.7585 1.46484 44.4306 1.46484 44.0261V18.1309H43.8477V25.2679C43.8477 25.6724 44.1755 26.0003 44.5801 26.0003C44.9847 26.0003 45.3125 25.6724 45.3125 25.2679V23.0137H48.5352V54.752H43.7012C43.2966 54.752 42.9688 55.0799 42.9688 55.4844C42.9688 55.8889 43.2966 56.2168 43.7012 56.2168H49.2676C49.6722 56.2168 50 55.8889 50 55.4844V17.3984C50 16.9939 49.6722 16.666 49.2676 16.666ZM10.9375 16.666H1.46484V13.248H10.9375V16.666ZM43.8477 16.666H12.4023V13.248H43.8477V16.666ZM48.5352 21.5488H45.3125V18.1309H48.5352V21.5488Z" fill="black"/>
<path d="M44.5801 27.7012C44.1755 27.7012 43.8477 28.0291 43.8477 28.4336V49.8691H1.46484V47.1836C1.46484 46.7791 1.13691 46.4512 0.732422 46.4512C0.32793 46.4512 0 46.7791 0 47.1836V50.6016C0 51.0061 0.32793 51.334 0.732422 51.334H4.6875V55.4844C4.6875 55.8889 5.01543 56.2168 5.41992 56.2168H40.6291C41.0337 56.2168 41.3615 55.8889 41.3615 55.4844C41.3615 55.0799 41.0337 54.752 40.6291 54.752H6.15234V51.334H44.5801C44.9847 51.334 45.3125 51.0061 45.3125 50.6016V28.4336C45.3125 28.0291 44.9847 27.7012 44.5801 27.7012Z" fill="black"/>
<path d="M29.9805 40.7546H14.3555C12.8746 40.7546 11.6699 41.9593 11.6699 43.4402V45.3933C11.6699 46.8742 12.8746 48.0789 14.3555 48.0789H29.9805C31.4612 48.0789 32.666 46.8742 32.666 45.3933V43.4402C32.666 41.9593 31.4612 40.7546 29.9805 40.7546ZM31.2012 45.3933C31.2012 46.0665 30.6536 46.614 29.9805 46.614H14.3555C13.6823 46.614 13.1348 46.0665 13.1348 45.3933V43.4402C13.1348 42.767 13.6823 42.2195 14.3555 42.2195H29.9805C30.6536 42.2195 31.2012 42.767 31.2012 43.4402V45.3933Z" fill="black"/>
<path d="M3.56445 15.6895C3.96896 15.6895 4.29688 15.3615 4.29688 14.957C4.29688 14.5525 3.96896 14.2246 3.56445 14.2246C3.15995 14.2246 2.83203 14.5525 2.83203 14.957C2.83203 15.3615 3.15995 15.6895 3.56445 15.6895Z" fill="black"/>
<path d="M9.0332 15.6895C9.43771 15.6895 9.76562 15.3615 9.76562 14.957C9.76562 14.5525 9.43771 14.2246 9.0332 14.2246C8.6287 14.2246 8.30078 14.5525 8.30078 14.957C8.30078 15.3615 8.6287 15.6895 9.0332 15.6895Z" fill="black"/>
<path d="M6.29883 15.6895C6.70333 15.6895 7.03125 15.3615 7.03125 14.957C7.03125 14.5525 6.70333 14.2246 6.29883 14.2246C5.89432 14.2246 5.56641 14.5525 5.56641 14.957C5.56641 15.3615 5.89432 15.6895 6.29883 15.6895Z" fill="black"/>
<path d="M17.5183 36.2015L12.9145 23.311C12.8106 23.02 12.5353 22.8255 12.2263 22.8248C12.2258 22.8248 12.2253 22.8248 12.2247 22.8248C11.9164 22.8248 11.6409 23.018 11.536 23.308C11.5245 23.3399 10.3721 26.5244 9.23418 29.6894C6.89053 36.2081 6.89014 36.2622 6.88858 36.4415C6.88497 36.846 7.21006 37.1768 7.61456 37.1803C7.6167 37.1803 7.61885 37.1803 7.6211 37.1803C7.97295 37.1803 8.26778 36.9317 8.3377 36.5994C8.41622 36.3343 8.96504 34.7833 9.7042 32.7172H14.7185L16.1388 36.6942C16.2457 36.9937 16.5277 37.1804 16.8285 37.1804C16.9103 37.1804 16.9935 37.1666 17.0748 37.1375C17.4558 37.0015 17.6543 36.5824 17.5183 36.2015ZM10.2291 31.2525C10.8597 29.4952 11.5674 27.5314 12.2205 25.7231L14.1953 31.2525H10.2291Z" fill="black"/>
<path d="M19.3397 22.8248H19.0885C18.684 22.8248 18.3561 23.1528 18.3561 23.5573V36.4479C18.3561 36.8524 18.684 37.1803 19.0885 37.1803H19.3397C23.2975 37.1803 26.5174 33.9604 26.5174 30.0026C26.5174 26.0448 23.2975 22.8248 19.3397 22.8248ZM19.8209 35.6952V24.3097C22.7466 24.5549 25.0525 27.0145 25.0525 30.0025C25.0525 32.9905 22.7466 35.4501 19.8209 35.6952Z" fill="black"/>
<path d="M32.8958 29.019H31.3513C30.1628 29.019 29.1959 28.0521 29.1959 26.8636V26.445C29.1959 25.2566 30.1628 24.2897 31.3513 24.2897H32.2721C33.4606 24.2897 34.4275 25.2566 34.4275 26.445C34.4275 26.8495 34.7553 27.1775 35.1599 27.1775C35.5645 27.1775 35.8923 26.8495 35.8923 26.445C35.8923 24.4489 34.2683 22.8248 32.2721 22.8248H31.3513C29.3551 22.8248 27.7311 24.4489 27.7311 26.445V26.8636C27.7311 28.8598 29.3551 30.4838 31.3513 30.4838H32.8958C33.7404 30.4838 34.4275 31.1709 34.4275 32.0155V33.56C34.4275 34.7485 33.4606 35.7155 32.2721 35.7155H31.3513C30.1628 35.7155 29.1959 34.7486 29.1959 33.56V33.0996C29.1959 32.6951 28.868 32.3672 28.4635 32.3672C28.0589 32.3672 27.7311 32.6951 27.7311 33.0996V33.56C27.7311 35.5562 29.3551 37.1803 31.3513 37.1803H32.2721C34.2683 37.1803 35.8923 35.5563 35.8923 33.56V32.0155C35.8923 30.3632 34.5481 29.019 32.8958 29.019Z" fill="black"/>
</svg>
