<svg width="61" height="66" viewBox="0 0 61 66" fill="none" xmlns="http://www.w3.org/2000/svg">
<path d="M56.9986 8.17321C61.8807 15.0509 60.2593 26.3831 58.0855 38.3033C55.9117 50.2234 53.2212 62.696 46.4861 65.4043C39.7509 68.1126 28.9711 61.0567 19.8127 54.9808C10.6543 48.9049 3.0995 43.809 1.22862 37.0204C-0.642256 30.2318 3.17077 21.7504 8.78341 14.7124C14.396 7.65649 21.8261 2.06167 31.2518 0.475875C40.6774 -1.12774 52.0987 1.2955 56.9986 8.17321Z" fill="#FFE3E3"/>
<g clip-path="url(#clip0)">
<path d="M47.5505 32.4202C47.955 32.4202 48.283 32.0924 48.283 31.6878V30.9065C48.283 29.251 47.638 27.6938 46.4667 26.5213C45.9528 26.0079 45.3648 25.5957 44.7271 25.2945C45.8173 24.484 46.5251 23.1866 46.5251 21.7268C46.5251 19.2767 44.5319 17.2835 42.0818 17.2835C40.5304 17.2835 39.163 18.0832 38.368 19.2915C38.3688 19.2541 38.3708 19.217 38.3708 19.1793C38.3708 16.2176 35.9614 13.8082 32.9998 13.8082C30.0381 13.8082 27.6287 16.2176 27.6287 19.1793C27.6287 19.2169 27.6307 19.254 27.6315 19.2915C26.8365 18.0832 25.4691 17.2835 23.9177 17.2835C21.4676 17.2835 19.4744 19.2767 19.4744 21.7268C19.4744 23.1877 20.1832 24.4858 21.2748 25.2962C21.0667 25.3942 20.8635 25.5035 20.6667 25.6249C20.3224 25.8373 20.2154 26.2884 20.4277 26.6327C20.64 26.9769 21.0912 27.084 21.4356 26.8716C22.1797 26.4128 23.038 26.1701 23.9177 26.1701C24.6655 26.1701 25.3883 26.3425 26.0437 26.673C25.0439 28.0719 24.4548 29.7837 24.4548 31.6303V35.6428H19.1814V30.9065C19.1814 30.1857 19.3388 29.494 19.6494 28.8506C19.8251 28.4863 19.6724 28.0484 19.3082 27.8726C18.9438 27.6965 18.506 27.8496 18.3301 28.2138C17.923 29.0575 17.7166 29.9634 17.7166 30.9065V36.3753C17.7166 36.7799 18.0445 37.1077 18.449 37.1077H24.4548V39.4429C24.4548 39.8475 24.7828 40.1754 25.1873 40.1754H26.7498C27.1542 40.1754 27.4822 39.8475 27.4822 39.4429C27.4822 39.0383 27.1542 38.7105 26.7498 38.7105H25.9197V31.6304C25.9197 27.7264 29.0958 24.5504 32.9998 24.5504C36.9038 24.5504 40.0798 27.7264 40.0798 31.6304V38.7105H29.8911C29.4866 38.7105 29.1586 39.0383 29.1586 39.4429C29.1586 39.8475 29.4866 40.1754 29.8911 40.1754H40.8123C41.2167 40.1754 41.5447 39.8475 41.5447 39.4429V37.1077H47.5505C47.955 37.1077 48.283 36.7799 48.283 36.3753V34.8128C48.283 34.4082 47.955 34.0803 47.5505 34.0803C47.146 34.0803 46.8181 34.4082 46.8181 34.8128V35.6428H41.5447V31.6304C41.5447 29.7837 40.9556 28.072 39.9558 26.6731C40.6112 26.3426 41.334 26.1702 42.0818 26.1702C43.3463 26.1702 44.5359 26.6629 45.4308 27.557C46.3254 28.4525 46.8181 29.6421 46.8181 30.9065V31.6878C46.8181 32.0924 47.146 32.4202 47.5505 32.4202ZM23.9177 24.7053C22.2753 24.7053 20.9392 23.3691 20.9392 21.7268C20.9392 20.0845 22.2753 18.7483 23.9177 18.7483C25.5601 18.7483 26.8962 20.0845 26.8962 21.7268C26.8962 23.3691 25.5601 24.7053 23.9177 24.7053ZM27.0171 25.5356C26.868 25.4492 26.716 25.3691 26.561 25.2959C27.6151 24.5131 28.311 23.2752 28.3573 21.8754C28.7659 22.5761 29.3272 23.1773 29.9971 23.6306C28.8723 24.0543 27.8597 24.7085 27.0171 25.5356ZM32.9998 23.0855C30.8458 23.0855 29.0935 21.3332 29.0935 19.1793C29.0935 17.0254 30.8458 15.273 32.9998 15.273C35.1537 15.273 36.906 17.0254 36.906 19.1793C36.906 21.3332 35.1537 23.0855 32.9998 23.0855ZM38.9824 25.5356C38.1398 24.7085 37.1272 24.0543 36.0024 23.6306C36.6723 23.1773 37.2336 22.5761 37.6422 21.8754C37.6885 23.2752 38.3843 24.5131 39.4385 25.2959C39.2836 25.3691 39.1316 25.4492 38.9824 25.5356ZM42.0818 24.7053C40.4394 24.7053 39.1033 23.3691 39.1033 21.7268C39.1033 20.0845 40.4394 18.7483 42.0818 18.7483C43.7242 18.7483 45.0603 20.0845 45.0603 21.7268C45.0603 23.3691 43.7242 24.7053 42.0818 24.7053Z" fill="black"/>
<path d="M15.6658 5.95532H11.6619C9.64253 5.95532 7.99976 7.5981 7.99976 9.61743V13.6213C7.99976 14.8329 8.9854 15.8186 10.197 15.8186C11.4086 15.8186 12.3943 14.8329 12.3943 13.6213V10.3499H15.6658C16.8774 10.3499 17.863 9.36411 17.863 8.15259C17.863 6.94106 16.8774 5.95532 15.6658 5.95532ZM15.6658 8.88501H11.6619C11.2574 8.88501 10.9294 9.21284 10.9294 9.61743V13.6213C10.9294 14.0252 10.6009 14.3538 10.197 14.3538C9.79312 14.3538 9.4646 14.0252 9.4646 13.6213V9.61743C9.4646 8.40591 10.4502 7.42017 11.6619 7.42017H15.6658C16.0697 7.42017 16.3982 7.74868 16.3982 8.15259C16.3982 8.55649 16.0697 8.88501 15.6658 8.88501Z" fill="black"/>
<path d="M54.3376 5.95532H50.3337C49.1221 5.95532 48.1365 6.94106 48.1365 8.15259C48.1365 9.36411 49.1221 10.3499 50.3337 10.3499H53.6052V13.6213C53.6052 14.8329 54.5909 15.8186 55.8025 15.8186C57.0141 15.8186 57.9998 14.8329 57.9998 13.6213V9.61743C57.9998 7.5981 56.357 5.95532 54.3376 5.95532ZM56.5349 13.6213C56.5349 14.0252 56.2064 14.3538 55.8025 14.3538C55.3986 14.3538 55.0701 14.0252 55.0701 13.6213V9.61743C55.0701 9.21284 54.7421 8.88501 54.3376 8.88501H50.3337C49.9298 8.88501 49.6013 8.55649 49.6013 8.15259C49.6013 7.74868 49.9298 7.42017 50.3337 7.42017H54.3376C55.5493 7.42017 56.5349 8.40591 56.5349 9.61743V13.6213Z" fill="black"/>
<path d="M55.8025 38.1819C54.5909 38.1819 53.6052 39.1676 53.6052 40.3792V43.6506H50.3337C49.1221 43.6506 48.1365 44.6364 48.1365 45.8479C48.1365 47.0594 49.1221 48.0452 50.3337 48.0452H54.3376C56.357 48.0452 57.9998 46.4024 57.9998 44.3831V40.3792C57.9998 39.1676 57.0141 38.1819 55.8025 38.1819ZM56.5349 44.3831C56.5349 45.5946 55.5493 46.5803 54.3376 46.5803H50.3337C49.9298 46.5803 49.6013 46.2518 49.6013 45.8479C49.6013 45.444 49.9298 45.1155 50.3337 45.1155H54.3376C54.7421 45.1155 55.0701 44.7876 55.0701 44.3831V40.3792C55.0701 39.9752 55.3986 39.6467 55.8025 39.6467C56.2064 39.6467 56.5349 39.9752 56.5349 40.3792V44.3831Z" fill="black"/>
<path d="M15.6658 43.6506H12.3943V40.3792C12.3943 39.1676 11.4086 38.1819 10.197 38.1819C8.9854 38.1819 7.99976 39.1676 7.99976 40.3792V44.3831C7.99976 46.4024 9.64253 48.0452 11.6619 48.0452H15.6658C16.8774 48.0452 17.863 47.0594 17.863 45.8479C17.863 44.6364 16.8774 43.6506 15.6658 43.6506ZM15.6658 46.5803H11.6619C10.4502 46.5803 9.4646 45.5946 9.4646 44.3831V40.3792C9.4646 39.9752 9.79312 39.6467 10.197 39.6467C10.6009 39.6467 10.9294 39.9752 10.9294 40.3792V44.3831C10.9294 44.7876 11.2574 45.1155 11.6619 45.1155H15.6658C16.0697 45.1155 16.3982 45.444 16.3982 45.8479C16.3982 46.2518 16.0697 46.5803 15.6658 46.5803Z" fill="black"/>
<path d="M32.9998 2.00024C31.7881 2.00024 30.8025 2.98599 30.8025 4.19751V8.10376C30.8025 9.31528 31.7881 10.301 32.9998 10.301C34.2114 10.301 35.197 9.31528 35.197 8.10376V4.19751C35.197 2.98599 34.2114 2.00024 32.9998 2.00024ZM33.7322 8.10376C33.7322 8.50767 33.4037 8.83618 32.9998 8.83618C32.5958 8.83618 32.2673 8.50767 32.2673 8.10376V4.19751C32.2673 3.7936 32.5958 3.46509 32.9998 3.46509C33.4037 3.46509 33.7322 3.7936 33.7322 4.19751V8.10376Z" fill="black"/>
<path d="M32.9998 43.6995C31.7881 43.6995 30.8025 44.6852 30.8025 45.8967V49.803C30.8025 51.0145 31.7881 52.0002 32.9998 52.0002C34.2114 52.0002 35.197 51.0145 35.197 49.803V45.8967C35.197 44.6852 34.2114 43.6995 32.9998 43.6995ZM33.7322 49.803C33.7322 50.2069 33.4037 50.5354 32.9998 50.5354C32.5958 50.5354 32.2673 50.2069 32.2673 49.803V45.8967C32.2673 45.4928 32.5958 45.1643 32.9998 45.1643C33.4037 45.1643 33.7322 45.4928 33.7322 45.8967V49.803Z" fill="black"/>
<path d="M55.8025 24.803H51.8962C50.6846 24.803 49.699 25.7887 49.699 27.0002C49.699 28.2118 50.6846 29.1975 51.8962 29.1975H55.8025C57.0141 29.1975 57.9998 28.2118 57.9998 27.0002C57.9998 25.7887 57.0141 24.803 55.8025 24.803ZM55.8025 27.7327H51.8962C51.4923 27.7327 51.1638 27.4042 51.1638 27.0002C51.1638 26.5963 51.4923 26.2678 51.8962 26.2678H55.8025C56.2064 26.2678 56.5349 26.5963 56.5349 27.0002C56.5349 27.4042 56.2064 27.7327 55.8025 27.7327Z" fill="black"/>
<path d="M14.1033 24.803H10.197C8.9854 24.803 7.99976 25.7887 7.99976 27.0002C7.99976 28.2118 8.9854 29.1975 10.197 29.1975H14.1033C15.3149 29.1975 16.3005 28.2118 16.3005 27.0002C16.3005 25.7887 15.3149 24.803 14.1033 24.803ZM14.1033 27.7327H10.197C9.79312 27.7327 9.4646 27.4042 9.4646 27.0002C9.4646 26.5963 9.79312 26.2678 10.197 26.2678H14.1033C14.5072 26.2678 14.8357 26.5963 14.8357 27.0002C14.8357 27.4042 14.5072 27.7327 14.1033 27.7327Z" fill="black"/>
<path d="M37.1039 29.2463C36.7717 29.0158 36.3153 29.0982 36.0845 29.4303L32.922 33.9861L30.0736 31.1553C29.7867 30.8702 29.3229 30.8716 29.0379 31.1585C28.7527 31.4454 28.7542 31.9091 29.0411 32.1942L32.5093 35.6409C32.647 35.7779 32.8329 35.8538 33.0254 35.8538C33.0474 35.8538 33.0697 35.8528 33.0919 35.8507C33.3076 35.8311 33.5036 35.717 33.6271 35.5391L37.2879 30.2657C37.5185 29.9334 37.4362 29.477 37.1039 29.2463Z" fill="black"/>
</g>
<defs>
<clipPath id="clip0">
<rect x="7.99976" y="2.00024" width="50" height="50" fill="white"/>
</clipPath>
</defs>
</svg>
