<svg width="76" height="66" viewBox="0 0 76 66" fill="none" xmlns="http://www.w3.org/2000/svg">
<path d="M64.7205 3.26595C73.5426 9.17985 77.1339 24.4038 73.8939 37.832C70.6344 51.2408 60.5437 62.8734 49.5161 65.4302C38.5081 67.9871 26.5632 61.4876 17.3117 54.9101C8.06025 48.3326 1.48275 41.6966 0.233605 34.3774C-1.03505 27.0387 3.02465 19.0168 8.50917 13.8641C13.9937 8.71143 20.9225 6.40832 31.3841 3.57824C41.8651 0.728633 55.918 -2.64795 64.7205 3.26595Z" fill="#E6E3FF"/>
<path d="M62.9897 50.5716V47.3061C62.9897 46.9016 62.6618 46.5736 62.2573 46.5736C61.8528 46.5736 61.5249 46.9016 61.5249 47.3061V49.9427H14.4728V28.5081C14.4728 28.1036 14.1449 27.7756 13.7404 27.7756C13.3359 27.7756 13.008 28.1036 13.008 28.5081L13 52.4328C13 53.4828 13.8543 54.337 14.9042 54.337H14.9121H61.0857H61.0937C62.1437 54.337 62.9979 53.4827 62.9979 52.4328V50.6751C62.9979 50.6398 62.9945 50.6055 62.9897 50.5716ZM61.5249 52.433C61.5249 52.6752 61.3278 52.8723 61.0857 52.8723H14.9121C14.6699 52.8723 14.4728 52.6752 14.4728 52.433V51.4074H61.5248V52.433H61.5249Z" fill="black"/>
<path d="M62.9979 13.5672C62.9979 13.6017 63.0026 13.534 62.9979 13.5672V13.5672Z" fill="black"/>
<path d="M61.0938 11.663H61.0858H14.9121H14.9042C13.8543 11.663 13 12.5173 13 13.5673L13.0081 25.3343C13.0081 25.7388 13.336 26.0667 13.7405 26.0667C14.145 26.0667 14.4729 25.7388 14.4729 25.3343V23.8696H35.4956L25.7175 33.6477C25.7095 33.6556 25.7026 33.6642 25.6951 33.6723C25.6895 33.6785 25.6838 33.6844 25.6784 33.6907C25.6592 33.7131 25.6411 33.7365 25.6249 33.7609C25.6235 33.7629 25.6224 33.7651 25.6212 33.7671C25.6063 33.7901 25.593 33.8138 25.5808 33.8381C25.577 33.8456 25.5736 33.8533 25.5701 33.861C25.5599 33.883 25.551 33.9056 25.543 33.9286C25.5411 33.9343 25.5387 33.9399 25.537 33.9456C25.528 33.9743 25.5209 34.0034 25.5154 34.0329C25.515 34.0352 25.5141 34.0373 25.5137 34.0396L24.2009 41.5651C24.2 41.5702 24.1999 41.5754 24.1991 41.5806C24.1977 41.5901 24.1966 41.5995 24.1957 41.6073C24.1954 41.6099 24.1955 41.6124 24.1953 41.6151C24.1928 41.6393 24.1914 41.6635 24.1913 41.6876C24.1913 41.6917 24.1914 41.6957 24.1914 41.6998C24.1917 41.7246 24.1931 41.7493 24.196 41.7738C24.1964 41.7772 24.1969 41.7805 24.1972 41.7838C24.2005 41.8089 24.2048 41.8336 24.2105 41.8581C24.2111 41.8609 24.2119 41.8635 24.2126 41.8661C24.2187 41.891 24.2261 41.9155 24.2347 41.9397C24.2355 41.9418 24.2364 41.9439 24.2372 41.946C24.2463 41.9704 24.2565 41.9944 24.2681 42.0177C24.269 42.0194 24.2699 42.021 24.2708 42.0227C24.2828 42.0462 24.2959 42.0692 24.3104 42.0914C24.3113 42.0927 24.3123 42.094 24.3132 42.0953C24.328 42.1177 24.3439 42.1394 24.3613 42.1602C24.3621 42.1611 24.3631 42.1621 24.3638 42.1631C24.377 42.1787 24.3899 42.1945 24.4045 42.209C24.543 42.3476 24.7299 42.4235 24.9224 42.4235C24.9642 42.4235 25.0062 42.4199 25.0481 42.4127L32.5803 41.1006C32.6104 41.0952 32.6401 41.0878 32.6694 41.0786C32.6745 41.0771 32.6793 41.0751 32.6842 41.0735C32.7088 41.0653 32.7328 41.0556 32.7564 41.0446C32.7623 41.0419 32.7681 41.0394 32.7739 41.0365C32.8269 41.0104 32.8774 40.9775 32.9241 40.9376C32.9307 40.932 32.9371 40.9259 32.9435 40.92C32.9516 40.9126 32.96 40.9059 32.9678 40.8981L35.5426 38.3233C35.8287 38.0372 35.8287 37.5735 35.5426 37.2875C35.2566 37.0015 34.7928 37.0015 34.5069 37.2875L32.4501 39.3444L31.4142 38.3085L42.8076 26.9152L43.8434 27.951L36.7977 34.9967C36.5117 35.2827 36.5117 35.7465 36.7977 36.0325C37.0837 36.3185 37.5475 36.3185 37.8334 36.0325L44.9094 28.9565C45.007 29.0031 45.1143 29.0287 45.2244 29.0287C45.4187 29.0287 45.605 28.9515 45.7423 28.8141L48.9187 25.6377C49.2047 25.3517 49.2047 24.8879 48.9187 24.602L48.4008 24.0841L48.6155 23.8695H61.5253V44.1323C61.5253 44.5368 61.8532 44.8648 62.2577 44.8648C62.6622 44.8648 62.9901 44.5368 62.9901 44.1323L62.9982 13.5673C62.998 12.5173 62.1437 11.663 61.0938 11.663ZM14.4728 13.5672C14.4728 13.325 14.6699 13.1279 14.9121 13.1279H30.675V19.4752H14.4728V13.5672ZM14.4728 22.4047V20.94H37.7427C37.5688 21.1616 37.541 21.4598 37.6585 21.7064L36.9601 22.4048H14.4728V22.4047ZM38.6643 22.7722L39.7001 23.8081L28.3069 35.2013L27.2711 34.1656L38.6643 22.7722ZM25.8234 40.7906L26.0173 39.6794L26.9353 40.5971L25.8234 40.7906ZM28.6998 40.2898L26.3245 37.9157L26.7144 35.6805L30.9345 39.9006L28.6998 40.2898ZM30.3783 37.2729L29.3425 36.237L40.7359 24.8438L41.7716 25.8795L30.3783 37.2729ZM45.2242 27.2606L39.3548 21.3913L41.495 19.2511C41.4954 19.2506 41.4949 19.251 41.4954 19.2506L47.3647 25.1199L45.2242 27.2606ZM48.2279 22.1853L47.3647 23.0485L43.5669 19.2507L44.4301 18.3876C44.9061 17.9116 45.6804 17.9116 46.1564 18.3876L48.2279 20.459C48.7038 20.935 48.7038 21.7093 48.2279 22.1853ZM61.525 22.4047H49.8216C50.0249 21.9418 50.0921 21.433 50.0218 20.94H61.525V22.4047ZM61.525 19.4753H49.313C49.2966 19.458 49.2806 19.4403 49.2637 19.4233L47.1922 17.3518C46.685 16.8446 46.0107 16.5652 45.2934 16.5652C44.576 16.5652 43.9018 16.8445 43.3946 17.3518L42.5314 18.215L42.0135 17.6971C41.7275 17.4111 41.2637 17.4111 40.9778 17.6971L39.1997 19.4753H32.1398V13.1279H61.0857C61.3279 13.1278 61.525 13.325 61.525 13.5672V19.4753Z" fill="black"/>
<path d="M17.5896 14.1042C16.3781 14.1042 15.3925 15.0899 15.3925 16.3014C15.3925 17.5129 16.3781 18.4986 17.5896 18.4986C18.8011 18.4986 19.7868 17.5129 19.7868 16.3014C19.7868 15.0899 18.8012 14.1042 17.5896 14.1042ZM17.5896 17.0338C17.1857 17.0338 16.8572 16.7053 16.8572 16.3014C16.8572 15.8975 17.1857 15.569 17.5896 15.569C17.9935 15.569 18.322 15.8975 18.322 16.3014C18.322 16.7053 17.9935 17.0338 17.5896 17.0338Z" fill="black"/>
<path d="M22.6676 14.1042C21.4561 14.1042 20.4705 15.0899 20.4705 16.3014C20.4705 17.5129 21.4561 18.4986 22.6676 18.4986C23.8791 18.4986 24.8648 17.5129 24.8648 16.3014C24.8648 15.0899 23.8791 14.1042 22.6676 14.1042ZM22.6676 17.0338C22.2637 17.0338 21.9352 16.7053 21.9352 16.3014C21.9352 15.8975 22.2637 15.569 22.6676 15.569C23.0715 15.569 23.4 15.8975 23.4 16.3014C23.4 16.7053 23.0715 17.0338 22.6676 17.0338Z" fill="black"/>
<path d="M27.6478 14.1042C26.4363 14.1042 25.4507 15.0899 25.4507 16.3014C25.4507 17.5129 26.4363 18.4986 27.6478 18.4986C28.8594 18.4986 29.845 17.5129 29.845 16.3014C29.845 15.0899 28.8594 14.1042 27.6478 14.1042ZM27.6478 17.0338C27.2439 17.0338 26.9154 16.7053 26.9154 16.3014C26.9154 15.8975 27.2439 15.569 27.6478 15.569C28.0517 15.569 28.3803 15.8975 28.3803 16.3014C28.3803 16.7053 28.0517 17.0338 27.6478 17.0338Z" fill="black"/>
<path d="M51.0843 43.0399H24.9136C24.5091 43.0399 24.1812 43.3678 24.1812 43.7723C24.1812 44.1768 24.5091 44.5048 24.9136 44.5048H51.0843C51.4888 44.5048 51.8167 44.1768 51.8167 43.7723C51.8167 43.3678 51.4888 43.0399 51.0843 43.0399Z" fill="black"/>
<path d="M44.9134 23.7733L42.8419 21.7018C42.5559 21.4158 42.0921 21.4158 41.8062 21.7018C41.5202 21.9879 41.5202 22.4516 41.8062 22.7376L43.8777 24.8091C44.0206 24.952 44.2081 25.0236 44.3955 25.0236C44.5829 25.0236 44.7704 24.9521 44.9134 24.8091C45.1993 24.523 45.1993 24.0593 44.9134 23.7733Z" fill="black"/>
</svg>
