<svg width="68" height="66" viewBox="0 0 68 66" fill="none" xmlns="http://www.w3.org/2000/svg">
<path d="M56.9988 8.17296C61.881 15.0507 60.2595 26.3829 58.0857 38.303C55.912 50.2232 53.2215 62.6957 46.4863 65.404C39.7511 68.1124 28.9713 61.0565 19.8129 54.9806C10.6545 48.9047 3.09972 43.8088 1.22884 37.0201C-0.642043 30.2315 3.17099 21.7502 8.78362 14.7121C14.3963 7.65624 21.8263 2.06142 31.252 0.475631C40.6777 -1.12798 52.0989 1.29525 56.9988 8.17296Z" fill="#FFE3E3"/>
<g clip-path="url(#clip0)">
<path d="M67.1211 9.19922H62.375V4.21875C62.375 3.73336 61.9816 3.33984 61.4961 3.33984H8.87892C8.39353 3.33984 8.00002 3.73336 8.00002 4.21875V42.0313C8.00002 42.5167 8.39353 42.9102 8.87892 42.9102C9.36431 42.9102 9.75783 42.5167 9.75783 42.0313V10.957H60.6172V19.5214C60.6172 20.0068 61.0106 20.4004 61.4961 20.4004C61.9816 20.4004 62.375 20.0068 62.375 19.5214V16.8164H66.2422V54.9023H60.4414C59.9559 54.9023 59.5625 55.2959 59.5625 55.7812C59.5625 56.2666 59.9559 56.6602 60.4414 56.6602H67.1211C67.6066 56.6602 68 56.2666 68 55.7812V10.0781C68 9.59273 67.6066 9.19922 67.1211 9.19922ZM21.125 9.19922H9.75783V5.09766H21.125V9.19922ZM60.6172 9.19922H22.8828V5.09766H60.6172V9.19922ZM66.2422 15.0586H62.375V10.957H66.2422V15.0586Z" fill="black"/>
<path d="M61.4961 22.4414C61.0106 22.4414 60.6172 22.8349 60.6172 23.3203V49.043H9.75783V45.8203C9.75783 45.3349 9.36431 44.9414 8.87892 44.9414C8.39353 44.9414 8.00002 45.3349 8.00002 45.8203V49.9219C8.00002 50.4073 8.39353 50.8008 8.87892 50.8008H13.625V55.7812C13.625 56.2666 14.0185 56.6602 14.5039 56.6602H56.7549C57.2404 56.6602 57.6338 56.2666 57.6338 55.7812C57.6338 55.2959 57.2404 54.9023 56.7549 54.9023H15.3828V50.8008H61.4961C61.9816 50.8008 62.375 50.4073 62.375 49.9219V23.3203C62.375 22.8349 61.9816 22.4414 61.4961 22.4414Z" fill="black"/>
<path d="M43.9766 38.1055H25.2266C23.4495 38.1055 22.0039 39.5511 22.0039 41.3281V43.6719C22.0039 45.4489 23.4495 46.8945 25.2266 46.8945H43.9766C45.7535 46.8945 47.1992 45.4489 47.1992 43.6719V41.3281C47.1992 39.5511 45.7535 38.1055 43.9766 38.1055ZM45.4414 43.6719C45.4414 44.4796 44.7843 45.1367 43.9766 45.1367H25.2266C24.4188 45.1367 23.7617 44.4796 23.7617 43.6719V41.3281C23.7617 40.5204 24.4188 39.8633 25.2266 39.8633H43.9766C44.7843 39.8633 45.4414 40.5204 45.4414 41.3281V43.6719Z" fill="black"/>
<path d="M12.2774 8.02734C12.7628 8.02734 13.1563 7.63384 13.1563 7.14844C13.1563 6.66303 12.7628 6.26953 12.2774 6.26953C11.792 6.26953 11.3985 6.66303 11.3985 7.14844C11.3985 7.63384 11.792 8.02734 12.2774 8.02734Z" fill="black"/>
<path d="M18.8399 8.02734C19.3253 8.02734 19.7188 7.63384 19.7188 7.14844C19.7188 6.66303 19.3253 6.26953 18.8399 6.26953C18.3545 6.26953 17.961 6.66303 17.961 7.14844C17.961 7.63384 18.3545 8.02734 18.8399 8.02734Z" fill="black"/>
<path d="M15.5586 8.02734C16.044 8.02734 16.4375 7.63384 16.4375 7.14844C16.4375 6.66303 16.044 6.26953 15.5586 6.26953C15.0732 6.26953 14.6797 6.66303 14.6797 7.14844C14.6797 7.63384 15.0732 8.02734 15.5586 8.02734Z" fill="black"/>
<path d="M29.0219 32.6418L23.4974 17.1732C23.3727 16.8241 23.0423 16.5907 22.6715 16.5898C22.6709 16.5898 22.6704 16.5898 22.6697 16.5898C22.2997 16.5898 21.9691 16.8216 21.8433 17.1697C21.8294 17.2079 20.4465 21.0294 19.081 24.8273C16.2686 32.6498 16.2682 32.7147 16.2663 32.9299C16.262 33.4153 16.6521 33.8122 17.1375 33.8164C17.1401 33.8164 17.1426 33.8164 17.1453 33.8164C17.5676 33.8164 17.9213 33.5181 18.0052 33.1194C18.0995 32.8012 18.7581 30.9401 19.6451 28.4607H25.6622L27.3665 33.2331C27.4949 33.5925 27.8333 33.8165 28.1942 33.8165C28.2923 33.8165 28.3922 33.8 28.4898 33.7651C28.9469 33.6018 29.1852 33.0989 29.0219 32.6418ZM20.2749 26.703C21.0316 24.5943 21.8809 22.2377 22.6646 20.0677L25.0344 26.703H20.2749Z" fill="black"/>
<path d="M31.2077 16.59H30.9063C30.4209 16.59 30.0274 16.9835 30.0274 17.4689V32.9376C30.0274 33.423 30.4209 33.8165 30.9063 33.8165H31.2077C35.9571 33.8165 39.821 29.9526 39.821 25.2032C39.821 20.4539 35.9571 16.59 31.2077 16.59ZM31.7852 32.0344V18.3718C35.296 18.6661 38.0631 21.6175 38.0631 25.2031C38.0631 28.7887 35.296 31.7403 31.7852 32.0344Z" fill="black"/>
<path d="M47.4751 24.0229H45.6217C44.1955 24.0229 43.0352 22.8627 43.0352 21.4365V20.9342C43.0352 19.508 44.1955 18.3478 45.6217 18.3478H46.7266C48.1528 18.3478 49.3131 19.508 49.3131 20.9342C49.3131 21.4196 49.7065 21.8131 50.192 21.8131C50.6775 21.8131 51.0709 21.4196 51.0709 20.9342C51.0709 18.5388 49.1221 16.59 46.7266 16.59H45.6217C43.2262 16.59 41.2774 18.5388 41.2774 20.9342V21.4365C41.2774 23.8319 43.2262 25.7807 45.6217 25.7807H47.4751C48.4885 25.7807 49.3131 26.6053 49.3131 27.6187V29.4721C49.3131 30.8983 48.1528 32.0587 46.7266 32.0587H45.6217C44.1955 32.0587 43.0352 30.8984 43.0352 29.4721V28.9197C43.0352 28.4343 42.6417 28.0408 42.1563 28.0408C41.6708 28.0408 41.2774 28.4343 41.2774 28.9197V29.4721C41.2774 31.8676 43.2262 33.8165 45.6217 33.8165H46.7266C49.1221 33.8165 51.0709 31.8677 51.0709 29.4721V27.6187C51.0709 25.636 49.4578 24.0229 47.4751 24.0229Z" fill="black"/>
</g>
<defs>
<clipPath id="clip0">
<rect x="8.00002" width="60" height="60" fill="white"/>
</clipPath>
</defs>
</svg>
