<svg width="239" height="32" viewBox="0 0 239 32" fill="none" xmlns="http://www.w3.org/2000/svg">
<path d="M2.6506 30.0513C2.62266 30.4135 2.48297 30.72 2.23153 30.9708C1.98009 31.2216 1.67277 31.3469 1.30958 31.3469C0.918451 31.3469 0.597163 31.2355 0.345722 31.0126C0.122219 30.7618 0.0104675 30.4413 0.0104675 30.0513V3.38548C0.0104675 2.99538 0.136188 2.68888 0.387629 2.46597C0.63907 2.21519 0.960358 2.08981 1.35149 2.08981C1.71468 2.08981 2.022 2.21519 2.27344 2.46597C2.52488 2.71674 2.6506 3.02325 2.6506 3.38548V30.0513ZM24.1488 9.48768C26.747 9.48768 28.6468 10.2539 29.8481 11.7865C31.0774 13.2911 31.692 15.2973 31.692 17.8051V30.0931C31.692 30.4553 31.5663 30.7618 31.3149 31.0126C31.0634 31.2355 30.7701 31.3469 30.4348 31.3469C30.0716 31.3469 29.7643 31.2355 29.5129 31.0126C29.2894 30.7618 29.1776 30.4553 29.1776 30.0931V17.9305C29.1776 16.1193 28.7167 14.6565 27.7947 13.5419C26.9007 12.3995 25.5038 11.8283 23.604 11.8283C22.4027 11.8283 21.2572 12.1069 20.1677 12.6642C19.106 13.2214 18.2399 13.9738 17.5694 14.9212C16.8989 15.8407 16.5637 16.8438 16.5637 17.9305V30.0931C16.5637 30.4553 16.438 30.7618 16.1865 31.0126C15.963 31.2355 15.6697 31.3469 15.3065 31.3469C14.9433 31.3469 14.636 31.2355 14.3845 31.0126C14.161 30.7618 14.0493 30.4553 14.0493 30.0931V11.3685C14.0493 11.0062 14.161 10.7137 14.3845 10.4908C14.636 10.24 14.9433 10.1146 15.3065 10.1146C15.6697 10.1146 15.963 10.24 16.1865 10.4908C16.438 10.7137 16.5637 11.0062 16.5637 11.3685V13.6673C17.318 12.4691 18.3936 11.48 19.7905 10.6998C21.2153 9.89173 22.6681 9.48768 24.1488 9.48768ZM49.9268 2.80034C49.0328 2.80034 48.3343 3.09291 47.8314 3.67805C47.3565 4.26319 47.119 5.07125 47.119 6.10221V10.4072H51.8126C52.1199 10.4072 52.3853 10.5187 52.6088 10.7416C52.8602 10.9645 52.986 11.2431 52.986 11.5775C52.986 11.9118 52.8602 12.1905 52.6088 12.4134C52.3853 12.6363 52.1199 12.7478 51.8126 12.7478H47.119V30.0931C47.119 30.4553 46.9933 30.7618 46.7418 31.0126C46.5184 31.2355 46.225 31.3469 45.8618 31.3469C45.4986 31.3469 45.1913 31.2355 44.9398 31.0126C44.7164 30.7618 44.6046 30.4553 44.6046 30.0931V12.7478H41.5454C41.2101 12.7478 40.9307 12.6363 40.7073 12.4134C40.4838 12.1626 40.372 11.884 40.372 11.5775C40.372 11.2152 40.4838 10.9366 40.7073 10.7416C40.9307 10.5187 41.2101 10.4072 41.5454 10.4072H44.6046V6.10221C44.6046 4.34679 45.1075 2.99538 46.1132 2.04801C47.147 1.07277 48.5159 0.58515 50.2201 0.58515C51.0024 0.58515 51.7288 0.710541 52.3993 0.961316C53.0698 1.18423 53.405 1.56039 53.405 2.08981C53.405 2.42417 53.2933 2.70282 53.0698 2.92572C52.8463 3.14863 52.5949 3.26009 52.3155 3.26009C52.064 3.26009 51.7567 3.19043 51.3935 3.05111C50.7788 2.88393 50.29 2.80034 49.9268 2.80034ZM60.0263 30.0931C60.0263 30.4553 59.9006 30.7618 59.6492 31.0126C59.4257 31.2355 59.1323 31.3469 58.7691 31.3469C58.4059 31.3469 58.0986 31.2355 57.8472 31.0126C57.6237 30.7618 57.5119 30.4553 57.5119 30.0931V1.67185C57.5119 1.30961 57.6237 1.01704 57.8472 0.794133C58.0986 0.543357 58.4059 0.417969 58.7691 0.417969C59.1323 0.417969 59.4257 0.543357 59.6492 0.794133C59.9006 1.01704 60.0263 1.30961 60.0263 1.67185V30.0931ZM87.0981 10.1146C87.4615 10.1146 87.7549 10.24 87.9782 10.4908C88.2296 10.7137 88.3553 11.0062 88.3553 11.3685V23.1549C88.3553 25.8856 87.5873 27.9894 86.0505 29.4661C84.5143 30.9151 82.3908 31.6395 79.6806 31.6395C76.9986 31.6395 74.8895 30.9151 73.3527 29.4661C71.844 27.9894 71.0897 25.8856 71.0897 23.1549V11.3685C71.0897 11.0062 71.2017 10.7137 71.425 10.4908C71.6764 10.24 71.9842 10.1146 72.3469 10.1146C72.7103 10.1146 73.0037 10.24 73.227 10.4908C73.4784 10.7137 73.6041 11.0062 73.6041 11.3685V23.1549C73.6041 25.1612 74.1352 26.6937 75.1966 27.7525C76.2587 28.7835 77.7529 29.2989 79.6806 29.2989C81.6365 29.2989 83.1451 28.7835 84.2066 27.7525C85.2961 26.6937 85.8409 25.1612 85.8409 23.1549V11.3685C85.8409 11.0062 85.9529 10.7137 86.1762 10.4908C86.4276 10.24 86.7354 10.1146 87.0981 10.1146ZM115.148 10.1146C115.512 10.1146 115.805 10.24 116.028 10.4908C116.28 10.7137 116.405 11.0062 116.405 11.3685V23.1549C116.405 25.8856 115.637 27.9894 114.101 29.4661C112.564 30.9151 110.441 31.6395 107.731 31.6395C105.049 31.6395 102.94 30.9151 101.403 29.4661C99.8941 27.9894 99.1398 25.8856 99.1398 23.1549V11.3685C99.1398 11.0062 99.2518 10.7137 99.4751 10.4908C99.7265 10.24 100.034 10.1146 100.397 10.1146C100.76 10.1146 101.054 10.24 101.277 10.4908C101.528 10.7137 101.654 11.0062 101.654 11.3685V23.1549C101.654 25.1612 102.185 26.6937 103.247 27.7525C104.308 28.7835 105.803 29.2989 107.731 29.2989C109.687 29.2989 111.195 28.7835 112.257 27.7525C113.346 26.6937 113.891 25.1612 113.891 23.1549V11.3685C113.891 11.0062 114.003 10.7137 114.226 10.4908C114.478 10.24 114.785 10.1146 115.148 10.1146ZM145.294 19.4351C145.294 19.7695 145.168 20.062 144.916 20.3128C144.665 20.5357 144.372 20.6472 144.036 20.6472H128.196C128.196 22.319 128.531 23.8237 129.201 25.1612C129.899 26.4707 130.878 27.5156 132.135 28.2958C133.42 29.0482 134.928 29.4243 136.661 29.4243C138.002 29.4243 139.203 29.1457 140.265 28.5884C141.326 28.0312 142.178 27.3206 142.821 26.4568C143.128 26.2061 143.422 26.0807 143.701 26.0807C143.98 26.0807 144.232 26.1921 144.456 26.415C144.679 26.6379 144.791 26.8887 144.791 27.1674C144.791 27.4738 144.651 27.7664 144.372 28.0451C143.477 29.1318 142.346 30.0234 140.977 30.72C139.636 31.4166 138.211 31.7649 136.703 31.7649C134.551 31.7649 132.652 31.3052 131.003 30.3856C129.355 29.4661 128.07 28.1844 127.148 26.5404C126.226 24.8686 125.765 22.946 125.765 20.7726C125.765 18.4877 126.212 16.4955 127.106 14.7958C128.028 13.0682 129.243 11.7586 130.752 10.8669C132.261 9.94744 133.867 9.48768 135.571 9.48768C137.248 9.48768 138.812 9.87776 140.265 10.658C141.745 11.4382 142.947 12.5806 143.869 14.0852C144.791 15.5899 145.265 17.3732 145.294 19.4351ZM135.571 11.9118C133.951 11.9118 132.442 12.4691 131.045 13.5837C129.676 14.6983 128.796 16.3004 128.405 18.3902H142.695V18.0558C142.555 16.802 142.136 15.7153 141.438 14.7958C140.74 13.8484 139.86 13.1378 138.798 12.6642C137.764 12.1626 136.688 11.9118 135.571 11.9118ZM164.766 9.48768C167.364 9.48768 169.264 10.2539 170.465 11.7865C171.694 13.2911 172.309 15.2973 172.309 17.8051V30.0931C172.309 30.4553 172.183 30.7618 171.932 31.0126C171.681 31.2355 171.387 31.3469 171.052 31.3469C170.689 31.3469 170.381 31.2355 170.13 31.0126C169.907 30.7618 169.795 30.4553 169.795 30.0931V17.9305C169.795 16.1193 169.334 14.6565 168.412 13.5419C167.518 12.3995 166.121 11.8283 164.221 11.8283C163.02 11.8283 161.874 12.1069 160.785 12.6642C159.723 13.2214 158.857 13.9738 158.187 14.9212C157.516 15.8407 157.181 16.8438 157.181 17.9305V30.0931C157.181 30.4553 157.055 30.7618 156.804 31.0126C156.58 31.2355 156.287 31.3469 155.924 31.3469C155.56 31.3469 155.253 31.2355 155.002 31.0126C154.778 30.7618 154.666 30.4553 154.666 30.0931V11.3685C154.666 11.0062 154.778 10.7137 155.002 10.4908C155.253 10.24 155.56 10.1146 155.924 10.1146C156.287 10.1146 156.58 10.24 156.804 10.4908C157.055 10.7137 157.181 11.0062 157.181 11.3685V13.6673C157.935 12.4691 159.011 11.48 160.408 10.6998C161.832 9.89173 163.285 9.48768 164.766 9.48768ZM192.346 9.48768C193.659 9.48768 194.874 9.64096 195.992 9.94744C197.137 10.2261 198.045 10.6162 198.716 11.1177C199.414 11.6193 199.763 12.1626 199.763 12.7478C199.763 13.0542 199.651 13.3329 199.428 13.5837C199.232 13.8345 198.981 13.9598 198.674 13.9598C198.394 13.9598 198.157 13.9041 197.961 13.7927C197.794 13.6812 197.598 13.514 197.375 13.2911C197.011 12.9289 196.662 12.6642 196.327 12.497C195.908 12.3019 195.349 12.1487 194.651 12.0372C193.98 11.8979 193.254 11.8283 192.472 11.8283C190.935 11.8283 189.524 12.2183 188.239 12.9985C186.982 13.7788 185.99 14.8376 185.264 16.175C184.537 17.5125 184.174 18.9893 184.174 20.6054C184.174 22.2772 184.523 23.7819 185.222 25.1194C185.92 26.4568 186.884 27.5156 188.113 28.2958C189.37 29.0482 190.795 29.4243 192.388 29.4243C193.394 29.4243 194.19 29.3407 194.776 29.1736C195.391 29.0064 195.992 28.7695 196.578 28.463C196.774 28.3516 197.11 28.1008 197.584 27.7107C197.808 27.5156 198.003 27.3763 198.171 27.2927C198.339 27.1813 198.52 27.1256 198.716 27.1256C199.051 27.1256 199.316 27.237 199.512 27.4599C199.708 27.655 199.805 27.9197 199.805 28.254C199.805 28.7277 199.47 29.2432 198.8 29.8005C198.129 30.3299 197.207 30.7897 196.034 31.1798C194.86 31.5698 193.561 31.7649 192.136 31.7649C190.097 31.7649 188.281 31.2912 186.688 30.3438C185.096 29.3686 183.853 28.0312 182.959 26.3314C182.092 24.6317 181.66 22.7231 181.66 20.6054C181.66 18.5713 182.107 16.7184 183.001 15.0465C183.894 13.3468 185.152 11.9954 186.772 10.9923C188.393 9.98923 190.251 9.48768 192.346 9.48768ZM226.905 19.4351C226.905 19.7695 226.78 20.062 226.528 20.3128C226.277 20.5357 225.983 20.6472 225.648 20.6472H209.807C209.807 22.319 210.143 23.8237 210.813 25.1612C211.512 26.4707 212.489 27.5156 213.747 28.2958C215.032 29.0482 216.541 29.4243 218.272 29.4243C219.613 29.4243 220.815 29.1457 221.876 28.5884C222.938 28.0312 223.79 27.3206 224.433 26.4568C224.74 26.2061 225.033 26.0807 225.313 26.0807C225.592 26.0807 225.844 26.1921 226.067 26.415C226.29 26.6379 226.402 26.8887 226.402 27.1674C226.402 27.4738 226.263 27.7664 225.983 28.0451C225.09 29.1318 223.958 30.0234 222.589 30.72C221.248 31.4166 219.823 31.7649 218.314 31.7649C216.163 31.7649 214.263 31.3052 212.615 30.3856C210.967 29.4661 209.682 28.1844 208.76 26.5404C207.838 24.8686 207.377 22.946 207.377 20.7726C207.377 18.4877 207.824 16.4955 208.718 14.7958C209.64 13.0682 210.855 11.7586 212.364 10.8669C213.872 9.94744 215.478 9.48768 217.183 9.48768C218.859 9.48768 220.423 9.87776 221.876 10.658C223.357 11.4382 224.559 12.5806 225.48 14.0852C226.402 15.5899 226.877 17.3732 226.905 19.4351ZM217.183 11.9118C215.562 11.9118 214.054 12.4691 212.657 13.5837C211.288 14.6983 210.408 16.3004 210.017 18.3902H224.307V18.0558C224.168 16.802 223.749 15.7153 223.05 14.7958C222.351 13.8484 221.471 13.1378 220.41 12.6642C219.376 12.1626 218.301 11.9118 217.183 11.9118Z" fill="#313848"/>
<path d="M236.614 31.3469C236.139 31.3469 235.776 31.2076 235.524 30.929C235.273 30.6225 235.147 30.2184 235.147 29.7169V28.8392C235.147 28.3376 235.273 27.9475 235.524 27.6689C235.776 27.3902 236.139 27.2509 236.614 27.2509H236.907C237.382 27.2509 237.745 27.3902 237.997 27.6689C238.248 27.9475 238.374 28.3376 238.374 28.8392V29.7169C238.374 30.2184 238.248 30.6225 237.997 30.929C237.745 31.2076 237.382 31.3469 236.907 31.3469H236.614Z" fill="#4971F1"/>
</svg>
