<svg width="463" height="433" viewBox="0 0 463 433" fill="none" xmlns="http://www.w3.org/2000/svg">
<g clip-path="url(#clip0)">
<path d="M368.763 307.641C368.763 307.641 426.042 310.602 412.701 328.633C399.359 346.663 364.302 318.056 364.302 318.056L368.763 307.641Z" fill="#FFB8B8"/>
<path d="M263.207 135.902L274.866 138.817C274.866 138.817 281.667 159.219 286.525 177.678C291.383 196.137 301.098 251.514 301.098 251.514L376.422 304.301L367.438 324.397L267.094 284.851L244.747 197.109L263.207 135.902Z" fill="#575A89"/>
<path opacity="0.2" d="M274.177 172.117L269.831 263.11L278.899 290.163L252.337 270.686L274.177 172.117Z" fill="black"/>
<path d="M289.925 333.609C289.925 333.609 302.556 367.612 304.499 390.929C306.442 414.246 308.385 432.705 308.385 432.705H249.119L237.46 415.217V432.705H168.478C168.478 432.705 149.047 369.555 156.819 361.783C164.592 354.011 238.432 320.979 238.432 320.979L289.925 333.609Z" fill="#2F2E41"/>
<path d="M402.854 431.819H59.9116V433H402.854V431.819Z" fill="#3F3D56"/>
<path d="M215.6 98.9842C235.99 98.9842 252.52 82.4553 252.52 62.066C252.52 41.6767 235.99 25.1479 215.6 25.1479C195.209 25.1479 178.68 41.6767 178.68 62.066C178.68 82.4553 195.209 98.9842 215.6 98.9842Z" fill="#FFB8B8"/>
<path d="M187.424 77.6105L184.509 120.358L221.429 169.906L239.889 123.272C239.889 123.272 223.372 112.586 233.088 90.2404L187.424 77.6105Z" fill="#FFB8B8"/>
<path d="M295.267 341.866C295.267 350.613 270.977 364.212 270.977 364.212V369.07L261.262 373.927L239.888 331.183L234.062 377.811C234.062 377.811 191.31 384.617 177.71 377.811C164.105 371.012 157.305 373.927 137.873 367.128C118.442 360.328 145.647 269.001 145.647 269.001L126.216 128.13L168.667 106.905L170.904 105.784L176.742 104.71L185.69 103.057L215.599 123.272L218.007 135.904L219.489 143.677L227.257 134.93L233.124 115.635L274.867 138.819L263.21 232.082C263.21 232.082 295.267 333.125 295.267 341.866Z" fill="#575A89"/>
<path d="M152.447 371.984C152.447 371.984 197.14 407.931 175.765 414.732C154.391 421.532 142.732 377.813 142.732 377.813L152.447 371.984Z" fill="#FFB8B8"/>
<path d="M135.931 130.073L126.215 128.13C126.215 128.13 111.641 135.902 110.67 151.447C109.698 166.991 97.0676 275.803 97.0676 275.803L137.874 385.586L170.907 372.956L138.845 269.974L163.135 180.593L135.931 130.073Z" fill="#575A89"/>
<path d="M219.873 159.721C221.829 159.721 223.414 158.136 223.414 156.18C223.414 154.224 221.829 152.639 219.873 152.639C217.917 152.639 216.331 154.224 216.331 156.18C216.331 158.136 217.917 159.721 219.873 159.721Z" fill="#2F2E41"/>
<path d="M219.873 182.74C221.829 182.74 223.414 181.155 223.414 179.199C223.414 177.243 221.829 175.658 219.873 175.658C217.917 175.658 216.331 177.243 216.331 179.199C216.331 181.155 217.917 182.74 219.873 182.74Z" fill="#2F2E41"/>
<path d="M239.941 334.431C241.897 334.431 243.483 332.845 243.483 330.889C243.483 328.934 241.897 327.348 239.941 327.348C237.985 327.348 236.4 328.934 236.4 330.889C236.4 332.845 237.985 334.431 239.941 334.431Z" fill="#2F2E41"/>
<path d="M184.429 24.2451L177.604 21.5129C177.604 21.5129 191.874 5.80306 211.728 7.16916L206.144 1.02179C206.144 1.02179 219.794 -4.44245 232.203 9.90128C238.726 17.4414 246.273 26.3046 250.978 36.2887H258.287L255.236 43.0052L265.913 49.7217L254.954 48.5153C255.607 52.1933 255.708 55.9482 255.252 59.6558C254.782 63.3646 252.889 66.7456 249.973 69.0854C249.973 69.0854 241.509 51.5665 241.509 48.8343V55.6647C241.509 55.6647 234.684 49.5174 234.684 45.4192L230.962 50.2004H206.144L209.867 44.0531L195.597 46.1022L201.181 38.5888L179.087 69.6144C179.087 69.6144 166.436 34.4906 184.429 24.2451Z" fill="#2F2E41"/>
<path d="M403.974 285.405C436.573 285.405 463 258.979 463 226.382C463 193.784 436.573 167.358 403.974 167.358C371.375 167.358 344.948 193.784 344.948 226.382C344.948 258.979 371.375 285.405 403.974 285.405Z" fill="#3F3D56"/>
<path opacity="0.1" d="M403.974 277.142C432.009 277.142 454.736 254.416 454.736 226.382C454.736 198.348 432.009 175.621 403.974 175.621C375.938 175.621 353.211 198.348 353.211 226.382C353.211 254.416 375.938 277.142 403.974 277.142Z" fill="black"/>
<path d="M401.541 256.335V248.947C397.807 248.874 393.943 247.557 391.689 245.728L393.235 240.827C395.913 242.834 399.161 243.936 402.507 243.972C407.079 243.972 410.17 240.973 410.17 236.804C410.17 232.781 407.659 230.294 402.894 228.099C396.325 225.173 392.269 221.808 392.269 215.445C392.269 209.373 396.068 204.765 401.992 203.668V196.28H405.985V203.375C408.962 203.416 411.865 204.304 414.356 205.935L412.746 210.763C410.357 209.128 407.527 208.26 404.632 208.276C399.674 208.276 397.807 211.641 397.807 214.567C397.807 218.37 400.189 220.272 405.792 222.906C412.424 225.978 415.773 229.782 415.773 236.292C415.773 242.071 412.231 247.484 405.598 248.727V256.335H401.541Z" fill="#4971F1"/>
<path opacity="0.2" d="M147.568 297.992L171.176 371.732L152.288 295.001L147.568 297.992Z" fill="black"/>
<path d="M27.2071 153.935H12.2223C11.5692 153.934 10.943 153.675 10.4812 153.213C10.0194 152.751 9.75964 152.125 9.75891 151.472V129.932C9.75964 129.279 10.0194 128.653 10.4812 128.191C10.943 127.73 11.5692 127.47 12.2223 127.469H27.2071C27.8602 127.47 28.4863 127.73 28.9481 128.191C29.41 128.653 29.6697 129.279 29.6704 129.932V151.472C29.6697 152.125 29.41 152.751 28.9481 153.213C28.4863 153.675 27.8602 153.934 27.2071 153.935ZM12.2223 128.65C11.8822 128.65 11.5561 128.785 11.3156 129.026C11.0751 129.266 10.9399 129.592 10.9394 129.932V151.472C10.9399 151.812 11.0751 152.138 11.3156 152.379C11.5561 152.619 11.8822 152.754 12.2223 152.755H27.2071C27.5472 152.754 27.8732 152.619 28.1137 152.379C28.3542 152.138 28.4895 151.812 28.4899 151.472V129.932C28.4895 129.592 28.3542 129.266 28.1137 129.026C27.8732 128.785 27.5472 128.65 27.2071 128.65H12.2223Z" fill="#3F3D56"/>
<path d="M54.5773 153.935H41.0451C40.1995 153.934 39.3887 153.598 38.7908 153C38.1928 152.402 37.8564 151.591 37.8554 150.746V107.246C37.8564 106.4 38.1928 105.59 38.7908 104.992C39.3887 104.394 40.1995 104.057 41.0451 104.056H54.5773C55.423 104.057 56.2337 104.394 56.8316 104.992C57.4296 105.59 57.766 106.4 57.767 107.246V150.746C57.766 151.591 57.4296 152.402 56.8316 153C56.2337 153.598 55.423 153.934 54.5773 153.935ZM41.0451 105.237C40.5124 105.237 40.0017 105.449 39.6251 105.826C39.2484 106.202 39.0365 106.713 39.036 107.246V150.746C39.0365 151.278 39.2484 151.789 39.6251 152.166C40.0017 152.542 40.5124 152.754 41.0451 152.755H54.5773C55.11 152.754 55.6207 152.542 55.9973 152.166C56.374 151.789 56.5859 151.278 56.5864 150.746V107.246C56.5859 106.713 56.374 106.202 55.9973 105.826C55.6207 105.449 55.11 105.237 54.5773 105.237L41.0451 105.237Z" fill="#3F3D56"/>
<path d="M82.1513 153.935H69.6642C68.68 153.934 67.7364 153.543 67.0405 152.847C66.3445 152.151 65.9531 151.207 65.952 150.223V86.2288C65.9531 85.2446 66.3445 84.3011 67.0405 83.6052C67.7364 82.9093 68.68 82.5179 69.6642 82.5168H82.1513C83.1355 82.5179 84.0791 82.9093 84.775 83.6052C85.4709 84.3011 85.8624 85.2446 85.8635 86.2288V150.223C85.8624 151.207 85.4709 152.151 84.775 152.847C84.0791 153.543 83.1355 153.934 82.1513 153.935ZM69.6642 83.6972C68.993 83.698 68.3495 83.9649 67.8748 84.4395C67.4002 84.9141 67.1333 85.5576 67.1325 86.2288V150.223C67.1333 150.894 67.4002 151.538 67.8748 152.012C68.3495 152.487 68.993 152.754 69.6642 152.755H82.1513C82.8225 152.754 83.466 152.487 83.9406 152.012C84.4153 151.538 84.6822 150.894 84.683 150.223V86.2288C84.6822 85.5576 84.4153 84.9141 83.9406 84.4395C83.466 83.9649 82.8225 83.698 82.1513 83.6972H69.6642Z" fill="#3F3D56"/>
<path d="M25.334 131.571H14.0955V149.833H25.334V131.571Z" fill="#4971F1"/>
<path d="M53.4305 108.393H42.1919V149.833H53.4305V108.393Z" fill="#4971F1"/>
<path d="M81.527 86.853H70.2884V149.833H81.527V86.853Z" fill="#4971F1"/>
<path d="M426.759 86.0582H348.254C348.177 86.0582 348.1 86.043 348.029 86.0133C347.957 85.9836 347.892 85.9402 347.837 85.8854C347.782 85.8305 347.739 85.7655 347.709 85.6938C347.679 85.6222 347.664 85.5455 347.664 85.4679V5.78628C347.664 5.62974 347.726 5.47961 347.837 5.36892C347.948 5.25823 348.098 5.19604 348.254 5.19604C348.411 5.19604 348.561 5.25823 348.672 5.36892C348.783 5.47961 348.845 5.62974 348.845 5.78628V84.8777H426.759C426.916 84.8777 427.066 84.9399 427.177 85.0506C427.287 85.1613 427.35 85.3114 427.35 85.4679C427.35 85.6245 427.287 85.7746 427.177 85.8853C427.066 85.996 426.916 86.0582 426.759 86.0582Z" fill="#3F3D56"/>
<path d="M93.8516 162.198H0.590262C0.512742 162.198 0.435979 162.183 0.364356 162.154C0.292733 162.124 0.227653 162.08 0.172838 162.026C0.118023 161.971 0.0745456 161.906 0.0448893 161.834C0.015233 161.762 -2.01431e-05 161.686 1.99639e-08 161.608V68.9414C1.99639e-08 68.7848 0.0621877 68.6347 0.172883 68.524C0.283579 68.4133 0.433715 68.3511 0.590262 68.3511C0.746809 68.3511 0.896945 68.4133 1.00764 68.524C1.11834 68.6347 1.18052 68.7848 1.18052 68.9414V161.018H93.8516C94.0082 161.018 94.1583 161.08 94.269 161.191C94.3797 161.302 94.4419 161.452 94.4419 161.608C94.4419 161.765 94.3797 161.915 94.269 162.026C94.1583 162.136 94.0082 162.198 93.8516 162.198Z" fill="#3F3D56"/>
<path d="M375.347 78.6609H360.362C359.709 78.6603 359.082 78.4006 358.621 77.9388C358.159 77.477 357.899 76.8508 357.898 76.1977V54.6582C357.899 54.005 358.159 53.3789 358.621 52.9171C359.082 52.4553 359.709 52.1956 360.362 52.1949H375.347C376 52.1957 376.626 52.4555 377.087 52.9173C377.549 53.3791 377.809 54.0051 377.81 54.6582V76.1977C377.809 76.8507 377.549 77.4768 377.087 77.9386C376.626 78.4004 376 78.6602 375.347 78.6609ZM360.362 53.3754C360.022 53.3758 359.696 53.5111 359.455 53.7515C359.214 53.992 359.079 54.318 359.079 54.6582V76.1977C359.079 76.5378 359.214 76.8639 359.455 77.1044C359.696 77.3448 360.022 77.4801 360.362 77.4805H375.347C375.687 77.4801 376.013 77.3448 376.253 77.1043C376.494 76.8638 376.629 76.5378 376.629 76.1977V54.6582C376.629 54.3181 376.494 53.9921 376.253 53.7516C376.013 53.5111 375.687 53.3758 375.347 53.3754H360.362Z" fill="#3F3D56"/>
<path d="M406.034 78.661H392.242C391.43 78.66 390.653 78.3373 390.079 77.7637C389.506 77.1901 389.183 76.4123 389.182 75.6011V36.5868C389.183 35.7757 389.506 34.998 390.079 34.4244C390.653 33.8508 391.43 33.5282 392.242 33.5273H406.034C406.845 33.5282 407.623 33.8508 408.196 34.4244C408.77 34.998 409.093 35.7757 409.094 36.5868V75.6011C409.093 76.4123 408.77 77.1901 408.196 77.7637C407.623 78.3373 406.845 78.66 406.034 78.661ZM392.242 34.7078C391.743 34.7083 391.266 34.9065 390.913 35.2587C390.561 35.611 390.363 36.0887 390.363 36.5868V75.6011C390.363 76.0994 390.561 76.5771 390.913 76.9294C391.266 77.2818 391.743 77.4799 392.242 77.4805H406.034C406.532 77.4799 407.01 77.2818 407.362 76.9294C407.714 76.5771 407.913 76.0994 407.913 75.6011V36.5868C407.912 36.0887 407.714 35.611 407.362 35.2587C407.01 34.9065 406.532 34.7083 406.034 34.7078H392.242Z" fill="#3F3D56"/>
<path d="M373.204 56.5014H361.965V74.7633H373.204V56.5014Z" fill="#4971F1"/>
<path d="M404.757 38.4273H393.519V73.7609H404.757V38.4273Z" fill="#4971F1"/>
<path d="M367.733 45.9222C370.667 45.9222 373.045 43.5439 373.045 40.6101C373.045 37.6763 370.667 35.298 367.733 35.298C364.799 35.298 362.421 37.6763 362.421 40.6101C362.421 43.5439 364.799 45.9222 367.733 45.9222Z" fill="#4971F1"/>
<path d="M399.017 25.8543C401.951 25.8543 404.329 23.4759 404.329 20.5422C404.329 17.6084 401.951 15.23 399.017 15.23C396.083 15.23 393.705 17.6084 393.705 20.5422C393.705 23.4759 396.083 25.8543 399.017 25.8543Z" fill="#4971F1"/>
</g>
<defs>
<clipPath id="clip0">
<rect width="463" height="433" fill="white"/>
</clipPath>
</defs>
</svg>
