<svg width="557" height="447" viewBox="0 0 557 447" fill="none" xmlns="http://www.w3.org/2000/svg">
<g clip-path="url(#clip0)">
<path d="M557 415.345H0V416.638H557V415.345Z" fill="#3F3D56"/>
<path d="M349.473 193.846C349.473 193.846 324.489 213.447 336.981 217.902C349.473 222.357 357.503 201.864 357.503 201.864L349.473 193.846Z" fill="#FFB8B8"/>
<path d="M350.365 186.718L345.011 195.628C345.011 195.628 353.934 195.628 355.719 208.992L362.857 200.083L350.365 186.718Z" fill="#CFCCE0"/>
<path d="M469.037 389.859L469.93 416.587L459.222 422.824L454.761 420.151L455.653 389.859H469.037Z" fill="#FFB8B8"/>
<path d="M405.686 382.731L407.471 411.242L382.487 421.933L384.271 406.787C384.271 406.787 391.41 395.204 389.625 382.731H405.686Z" fill="#FFB8B8"/>
<path d="M444.054 168.008C444.054 168.008 458.33 205.428 461.007 228.594C463.684 251.759 468.145 313.235 468.145 313.235L477.068 392.531L452.084 396.095L441.377 315.908L417.286 236.612L411.932 315.908L407.47 388.077L384.271 388.967L382.487 314.126L372.672 218.793L378.025 173.354L444.054 168.008Z" fill="#2F2E41"/>
<path d="M457.438 418.369C457.438 418.369 458.901 403.406 469.769 411.778L471.714 410.351L480.637 429.952C480.637 429.952 491.344 445.098 472.606 446.88C453.869 448.662 455.653 429.952 455.653 429.952L453.869 421.933L454.761 416.682L457.438 418.369Z" fill="#2F2E41"/>
<path d="M405.686 400.55C407.882 401.804 409.702 403.622 410.958 405.815C412.213 408.009 412.857 410.498 412.824 413.024C412.824 421.933 411.932 422.824 411.932 422.824L398.548 426.388C398.548 426.388 389.625 425.497 384.271 430.843C378.918 436.189 352.15 439.753 352.15 432.625C352.15 425.497 374.456 413.915 374.456 413.915C374.456 413.915 381.081 402.744 385.799 403.874C390.517 405.005 392.302 406.787 392.302 407.678C392.302 408.569 389.625 414.806 389.625 414.806C389.625 414.806 404.794 411.242 405.686 400.55Z" fill="#2F2E41"/>
<path d="M403.901 58.4189C416.221 58.4189 426.208 48.4465 426.208 36.1448C426.208 23.8431 416.221 13.8706 403.901 13.8706C391.582 13.8706 381.594 23.8431 381.594 36.1448C381.594 48.4465 391.582 58.4189 403.901 58.4189Z" fill="#FFB8B8"/>
<path d="M420.409 41.936L430.224 64.2102L403.455 102.522C403.455 102.522 401.671 60.6463 396.317 53.5186C390.964 46.3909 420.409 41.936 420.409 41.936Z" fill="#FFB8B8"/>
<path d="M407.916 88.2664L412.378 76.6839L415.947 77.5746L420.408 74.0107L426.654 54.4097L435.577 60.6462L447.177 177.363L374.903 179.145L384.717 98.0669L393.64 74.902L400.081 66.3997L404.347 79.3566L407.916 88.2664Z" fill="#CFCCE0"/>
<path d="M428.439 138.161L431.169 57.5654C431.169 57.5654 436.469 57.9735 438.254 60.6464C440.039 63.3193 469.484 68.6651 469.484 68.6651L464.13 151.525C464.13 151.525 486.437 217.457 478.406 221.02C470.376 224.584 456.1 223.693 456.1 223.693L428.439 138.161Z" fill="#575A89"/>
<path d="M385.164 127.914L394.629 73.5962L373.564 87.8206L378.918 127.023L374.456 153.752C374.456 153.752 357.503 227.702 362.857 230.375C368.21 233.048 374.456 230.375 374.456 230.375L385.164 155.534V127.914Z" fill="#575A89"/>
<path d="M379.81 86.0388L373.564 87.8208L370.887 123.459L366.426 154.643L345.011 192.955C345.011 192.955 355.719 185.827 360.18 206.319L383.764 165.32L379.81 86.0388Z" fill="#575A89"/>
<path d="M449.408 186.718C449.408 186.718 424.424 206.319 436.916 210.774C449.408 215.229 457.438 194.737 457.438 194.737L449.408 186.718Z" fill="#FFB8B8"/>
<path d="M464.576 196.519L456.546 206.319L445.838 187.609L450.3 179.59L464.576 196.519Z" fill="#CFCCE0"/>
<path d="M462.792 71.7833L469.93 68.2195C469.93 68.2195 475.283 75.3472 476.176 81.584C477.068 87.8207 481.529 95.8394 481.529 100.294C481.529 104.749 494.021 146.625 494.021 146.625L465.468 204.537C465.468 204.537 459.222 183.154 445.838 181.372L468.145 150.188L455.653 127.914L462.792 71.7833Z" fill="#575A89"/>
<path d="M422.576 14.9222L426.782 13.2406C426.782 13.2406 417.987 3.57162 405.75 4.41244L409.191 0.628888C409.191 0.628888 400.778 -2.7342 393.13 6.09395C389.11 10.7347 384.458 16.1897 381.558 22.3347H377.053L378.934 26.4685L372.353 30.6023L379.107 29.8598C378.705 32.1235 378.643 34.4346 378.924 36.7165C379.214 38.9991 380.38 41.0801 382.177 42.5202C382.177 42.5202 387.394 31.7377 387.394 30.0561V34.2601C387.394 34.2601 391.601 30.4766 391.601 27.9542L393.895 30.897L395.042 26.2726L409.191 30.897L406.897 27.1135L415.692 28.3746L412.251 23.7503C412.251 23.7503 422.193 29.2154 422.576 33.8397C422.958 38.4639 425.868 42.8457 425.868 42.8457C425.868 42.8457 433.665 21.228 422.576 14.9222Z" fill="#2F2E41"/>
<path d="M422.193 35.6992C423.573 35.6992 424.691 34.303 424.691 32.5808C424.691 30.8586 423.573 29.4624 422.193 29.4624C420.813 29.4624 419.695 30.8586 419.695 32.5808C419.695 34.303 420.813 35.6992 422.193 35.6992Z" fill="#FFB8B8"/>
<path d="M103.248 183.633H26.223V162.081H66.4289L103.248 183.633Z" fill="#4971F1"/>
<path d="M26.0115 180.675V243.642H276.133V180.675H26.0115ZM123.563 233.077H42.3053V224.202H123.563V233.077ZM259.839 216.596H42.3053V207.721H259.839V216.596ZM259.839 200.114H42.3053V191.24H259.839V200.114Z" fill="#3F3D56"/>
<path d="M103.248 81.7873H26.223V60.2346H66.4289L103.248 81.7873Z" fill="#4971F1"/>
<path d="M26.0115 80.0967V143.064H276.133V80.0967H26.0115ZM123.563 132.499H42.3053V123.624H123.563V132.499ZM170.54 116.017H42.3053V107.143H170.54L170.54 116.017ZM259.839 99.5361H42.3054V90.6616H259.839V99.5361Z" fill="#3F3D56"/>
<path d="M103.248 283.366H26.223V261.813H66.4289L103.248 283.366Z" fill="#4971F1"/>
<path d="M26.0115 279.14V342.107H276.133V279.14H26.0115ZM170.54 331.542H42.3053V322.667H170.54V331.542ZM170.54 315.061H42.3053V306.186H170.54V315.061ZM259.839 298.579H42.3053V289.705H259.839V298.579Z" fill="#3F3D56"/>
<path d="M347.022 129.118H311.471V93.6196H335.595V94.4647H312.318V128.273H346.175V111.369H347.022V129.118Z" fill="#3F3D56"/>
<path d="M329.063 119.859C328.242 117.437 317.94 109.203 324.253 107.819L329.43 114.712L353.231 90.9456L355.625 93.3359L329.063 119.859Z" fill="#4971F1"/>
<path d="M347.022 229.696H311.471V194.198H335.595V195.043H312.318V228.851H346.175V211.947H347.022V229.696Z" fill="#3F3D56"/>
<path d="M329.063 220.437C328.242 218.015 317.94 209.781 324.253 208.397L329.43 215.29L353.231 191.524L355.625 193.914L329.063 220.437Z" fill="#4971F1"/>
<path d="M347.022 329.851H311.471V294.354H335.595V295.199H312.318V329.006H346.175V312.102H347.022V329.851Z" fill="#3F3D56"/>
<path d="M329.063 320.592C328.242 318.17 317.94 309.936 324.253 308.553L329.43 315.445L353.231 291.679L355.625 294.07L329.063 320.592Z" fill="#4971F1"/>
</g>
<defs>
<clipPath id="clip0">
<rect width="557" height="447" fill="white"/>
</clipPath>
</defs>
</svg>
