<svg width="508" height="395" viewBox="0 0 508 395" fill="none" xmlns="http://www.w3.org/2000/svg">
<g clip-path="url(#clip0)">
<path d="M447.576 367.348C447.539 367.185 443.959 350.873 451.271 337.326C458.583 323.779 474.191 317.804 474.348 317.745L475.061 317.478L475.23 318.221C475.267 318.383 478.847 334.695 471.535 348.243C464.224 361.79 448.615 367.764 448.458 367.823L447.745 368.091L447.576 367.348ZM474.083 319.29C470.957 320.634 458.617 326.515 452.442 337.956C446.266 349.399 448.129 362.932 448.723 366.278C451.848 364.938 464.183 359.066 470.364 347.612C476.54 336.17 474.677 322.639 474.083 319.29Z" fill="#3F3D56"/>
<path d="M465.947 343.49C452.807 351.389 447.747 367.076 447.747 367.076C447.747 367.076 463.99 369.959 477.13 362.061C490.27 354.163 495.331 338.475 495.331 338.475C495.331 338.475 479.087 335.592 465.947 343.49Z" fill="#D0CDE1"/>
<path d="M180.457 295.966C178.895 295.966 177.316 295.941 175.767 295.892L175.802 294.768C178.027 294.837 180.297 294.857 182.533 294.826L182.548 295.951C181.852 295.961 181.155 295.965 180.457 295.966ZM189.325 295.705L189.259 294.581C191.487 294.45 193.744 294.265 195.966 294.033L196.084 295.152C193.844 295.386 191.571 295.573 189.325 295.705ZM168.996 295.529C166.749 295.357 164.479 295.132 162.248 294.858L162.385 293.742C164.599 294.013 166.852 294.237 169.082 294.407L168.996 295.529ZM202.81 294.292L202.641 293.18C204.855 292.844 207.085 292.454 209.269 292.021L209.489 293.124C207.288 293.561 205.04 293.954 202.81 294.292ZM155.538 293.88C153.319 293.504 151.078 293.073 148.879 292.596L149.118 291.495C151.3 291.969 153.523 292.398 155.726 292.77L155.538 293.88ZM216.109 291.651L215.838 290.559C218.011 290.022 220.196 289.428 222.333 288.795L222.653 289.875C220.5 290.512 218.298 291.11 216.109 291.651ZM142.287 291.006C140.11 290.427 137.919 289.791 135.775 289.113L136.115 288.041C138.242 288.713 140.417 289.344 142.577 289.918L142.287 291.006ZM229.108 287.798L228.739 286.735C230.847 286.003 232.968 285.211 235.043 284.381L235.461 285.426C233.371 286.262 231.233 287.06 229.108 287.798ZM129.341 286.917C127.227 286.14 125.099 285.302 123.018 284.426L123.455 283.389C125.52 284.258 127.631 285.09 129.73 285.861L129.341 286.917ZM241.684 282.771L241.217 281.747C243.242 280.827 245.278 279.846 247.267 278.83L247.78 279.832C245.775 280.856 243.724 281.844 241.684 282.771ZM253.735 276.616L253.178 275.639C255.12 274.532 257.058 273.368 258.939 272.179L259.54 273.13C257.646 274.328 255.693 275.501 253.735 276.616ZM265.181 269.381L264.537 268.459C266.365 267.183 268.19 265.846 269.961 264.487L270.647 265.379C268.863 266.749 267.024 268.096 265.181 269.381ZM93.5054 267.797C91.6874 266.477 89.8713 265.095 88.1072 263.688L88.8101 262.809C90.5607 264.205 92.363 265.577 94.167 266.886L93.5054 267.797ZM275.925 261.132L275.199 260.271C276.904 258.834 278.6 257.337 280.242 255.82L281.006 256.647C279.352 258.175 277.643 259.684 275.925 261.132ZM82.9032 259.339C81.21 257.858 79.5279 256.317 77.9037 254.759L78.6836 253.947C80.2956 255.493 81.9649 257.022 83.6451 258.493L82.9032 259.339ZM285.878 251.934L285.077 251.144C286.648 249.553 288.202 247.907 289.695 246.251L290.533 247.004C289.028 248.673 287.462 250.331 285.878 251.934ZM73.1194 249.958C71.5659 248.326 70.0317 246.639 68.5594 244.944L69.4102 244.207C70.8713 245.889 72.3936 247.563 73.9355 249.182L73.1194 249.958ZM294.957 241.867L294.087 241.152C295.507 239.426 296.904 237.645 298.242 235.858L299.144 236.532C297.796 238.333 296.388 240.128 294.957 241.867ZM64.2334 239.73C62.8383 237.969 61.4647 236.151 60.1505 234.326L61.0645 233.669C62.3689 235.479 63.732 237.284 65.1166 239.032L64.2334 239.73ZM303.083 231.01L302.152 230.379C303.408 228.531 304.638 226.629 305.808 224.725L306.768 225.314C305.589 227.232 304.349 229.149 303.083 231.01ZM56.3198 228.743C55.0925 226.863 53.8913 224.929 52.7492 222.993L53.7194 222.421C54.8529 224.343 56.045 226.263 57.263 228.128L56.3198 228.743ZM310.188 219.453L309.203 218.909C310.284 216.954 311.334 214.946 312.326 212.941L313.336 213.44C312.337 215.46 311.278 217.483 310.188 219.453H310.188ZM316.203 207.288L315.172 206.836C316.069 204.788 316.931 202.691 317.734 200.602L318.785 201.006C317.977 203.11 317.108 205.224 316.203 207.288H316.203ZM43.6729 204.859C42.8095 202.789 41.9825 200.671 41.2153 198.563L42.274 198.178C43.0352 200.27 43.8558 202.372 44.7124 204.426L43.6729 204.859ZM321.074 194.61L320.005 194.256C320.708 192.14 321.371 189.977 321.976 187.827L323.061 188.131C322.451 190.298 321.782 192.478 321.074 194.61ZM39.0456 192.144C38.3754 189.999 37.7457 187.808 37.174 185.631L38.2635 185.346C38.8308 187.506 39.4559 189.68 40.1208 191.809L39.0456 192.144ZM324.745 181.568L323.648 181.313C324.153 179.145 324.613 176.93 325.019 174.731L326.126 174.934C325.718 177.15 325.254 179.382 324.745 181.568ZM35.6054 179.04C35.1357 176.842 34.7106 174.603 34.3421 172.383L35.4531 172.199C35.8191 174.401 36.2409 176.624 36.7071 178.804L35.6054 179.04ZM327.2 168.246L326.084 168.093C326.387 165.889 326.642 163.641 326.844 161.413L327.966 161.514C327.763 163.76 327.505 166.025 327.2 168.246ZM33.3856 165.676C33.12 163.449 32.9019 161.18 32.7372 158.933L33.8608 158.85C34.0239 161.081 34.2406 163.332 34.5043 165.543L33.3856 165.676ZM328.425 154.755L327.3 154.705C327.4 152.475 327.451 150.213 327.451 147.983H328.577C328.577 150.23 328.526 152.509 328.425 154.755ZM32.3959 152.166C32.3574 150.786 32.3379 149.378 32.3376 147.983C32.3376 147.117 32.345 146.252 32.3599 145.39L33.4862 145.41C33.4714 146.266 33.464 147.123 33.464 147.983C33.4642 149.368 33.4838 150.765 33.5217 152.135L32.3959 152.166ZM33.7535 138.691L32.6294 138.621C32.7699 136.372 32.964 134.101 33.2057 131.871L34.3255 131.992C34.0855 134.206 33.8933 136.46 33.7536 138.691H33.7535ZM326.724 131.826C326.499 129.607 326.189 128.526 325.862 126.317L326.977 126.152C327.306 128.378 327.588 130.077 327.815 132.312L326.724 131.826ZM35.2025 125.326L34.0893 125.154C34.4344 122.928 34.8354 120.684 35.2811 118.484L36.385 118.707C35.9428 120.89 35.5449 123.117 35.2025 125.326H35.2025ZM324.726 119.691C324.296 117.495 323.812 115.286 323.285 113.123L324.379 112.857C324.91 115.036 325.398 117.263 325.831 119.475L324.726 119.691ZM37.8705 112.15L36.778 111.876C37.3249 109.697 37.9308 107.499 38.5787 105.344L39.6572 105.668C39.0145 107.806 38.4134 109.987 37.8705 112.15ZM321.542 106.628C320.914 104.486 320.228 102.33 319.502 100.221L320.567 99.8553C321.299 101.98 321.99 104.153 322.624 106.312L321.542 106.628ZM41.748 99.2572L40.6854 98.8841C41.4339 96.7568 42.2422 94.6193 43.0875 92.531L44.1319 92.953C43.2929 95.0251 42.4908 97.1464 41.748 99.2572ZM317.168 93.9148C316.346 91.8438 315.466 89.7654 314.552 87.737L315.58 87.2749C316.501 89.3189 317.388 91.4133 318.215 93.5L317.168 93.9148ZM46.8035 86.7674L45.78 86.2976C46.7208 84.2508 47.722 82.1982 48.756 80.1969L49.757 80.7129C48.7307 82.699 47.7371 84.736 46.8035 86.7674ZM311.656 81.6833C310.647 79.6967 309.579 77.7059 308.481 75.767L309.461 75.2126C310.568 77.1666 311.644 79.1725 312.66 81.1745L311.656 81.6833ZM52.9857 74.8021L52.0095 74.2405C53.1331 72.2913 54.3181 70.34 55.5316 68.4416L56.4809 69.0471C55.2767 70.9313 54.1006 72.8677 52.9857 74.8021ZM305.038 69.9996C303.848 68.1067 302.602 66.2208 301.334 64.3943L302.259 63.7531C303.537 65.5936 304.793 67.4937 305.992 69.4012L305.038 69.9996ZM60.2357 63.4594L59.3151 62.811C60.6136 60.9711 61.9712 59.1371 63.3512 57.3601L64.2411 58.0497C62.8719 59.8136 61.5241 61.6335 60.2357 63.4594ZM297.376 58.9624C296.019 57.1862 294.605 55.4204 293.174 53.7143L294.037 52.9914C295.479 54.7108 296.904 56.4897 298.272 58.2794L297.376 58.9624ZM68.4884 52.8299L67.631 52.1002C69.0882 50.3902 70.607 48.6881 72.145 47.0413L72.9684 47.809C71.4421 49.4434 69.9349 51.1328 68.4884 52.8299ZM288.736 48.6615C287.223 47.0161 285.654 45.3852 284.072 43.8148L284.866 43.0164C286.46 44.5992 288.041 46.2421 289.566 47.8999L288.736 48.6615ZM77.6711 42.9988L76.8835 42.1943C78.4941 40.6201 80.1609 39.0636 81.837 37.5685L82.5872 38.4081C80.9237 39.8917 79.2696 41.4363 77.6711 42.9988V42.9988ZM279.192 39.184C277.533 37.6814 275.821 36.1995 274.103 34.7793L274.821 33.9122C276.552 35.3431 278.278 36.8363 279.948 38.3504L279.192 39.184ZM87.7062 34.0458L86.9951 33.1732C88.7372 31.7558 90.5376 30.3579 92.3466 29.0183L93.0175 29.9221C91.2221 31.2519 89.4352 32.6391 87.7063 34.0458H87.7062ZM98.5095 26.0461L97.8808 25.1125C99.7453 23.8591 101.665 22.6319 103.586 21.4639L104.171 22.4255C102.265 23.5844 100.36 24.8026 98.5095 26.0461H98.5095ZM109.992 19.0682L109.451 18.0808C111.424 17.0024 113.446 15.9562 115.462 14.9707L115.957 15.9817C113.957 16.9595 111.949 17.9978 109.992 19.0682ZM245.93 16.4609C243.926 15.4633 241.872 14.4995 239.828 13.5964L240.283 12.5672C242.344 13.4772 244.413 14.4484 246.432 15.4537L245.93 16.4609ZM122.056 13.1725L121.609 12.14C123.67 11.2474 125.779 10.3913 127.876 9.59534L128.276 10.6476C126.195 11.4372 124.102 12.2867 122.056 13.1725ZM233.598 11.0149C231.512 10.2069 229.378 9.43599 227.253 8.72386L227.612 7.65676C229.752 8.37467 231.903 9.15136 234.005 9.96597L233.598 11.0149ZM134.62 8.40598L134.27 7.33669C136.41 6.63555 138.594 5.97534 140.761 5.37502L141.062 6.45916C138.912 7.05508 136.744 7.71008 134.62 8.40598H134.62ZM220.825 6.7328C218.676 6.12095 216.485 5.55113 214.312 5.03929L214.571 3.94417C216.761 4.45986 218.969 5.03407 221.134 5.65032L220.825 6.7328ZM147.586 4.81098L147.335 3.71394C149.53 3.21308 151.765 2.75673 153.979 2.35781L154.18 3.46502C151.982 3.8612 149.764 4.31397 147.586 4.81098ZM207.728 3.648C205.535 3.23668 203.301 2.87075 201.088 2.56029L201.244 1.44593C203.474 1.75887 205.726 2.12757 207.936 2.54189L207.728 3.648ZM160.828 2.42347L160.679 1.30802C162.909 1.01075 165.176 0.760732 167.419 0.565664L167.517 1.68661C165.291 1.88058 163.041 2.12837 160.828 2.42347ZM194.404 1.77783C192.185 1.56902 189.927 1.40802 187.691 1.30005L187.746 0.175805C189.998 0.284879 192.273 0.446975 194.509 0.657454L194.404 1.77783ZM174.233 1.25499L174.186 0.130773C176.256 0.0445041 178.366 0.000551419 180.457 0L180.967 0.000819934L180.964 1.12616L180.457 1.12534C178.382 1.12587 176.287 1.16955 174.233 1.25499Z" fill="#3F3D56"/>
<path d="M508 367.027H95.1797V368.152H508V367.027Z" fill="#3F3D56"/>
<path d="M336.795 177.819L342.427 265.033C342.427 265.033 355.944 299.356 355.381 331.991C355.381 331.991 350.312 344.932 354.254 347.183C358.197 349.434 360.45 351.122 358.197 352.81C355.944 354.498 354.254 358.436 355.944 359.562C357.634 360.687 358.197 362.375 357.634 362.375H340.738C340.738 362.375 344.117 353.935 339.048 351.684C333.98 349.434 336.795 343.807 336.795 343.807L299.062 233.523L269.212 334.804C269.212 334.804 274.281 338.18 270.339 339.868C266.396 341.556 264.707 338.18 266.396 341.556C268.086 344.932 265.833 346.62 265.833 347.183C265.833 347.746 248.937 345.495 248.937 345.495C248.937 345.495 257.385 338.18 253.443 336.492C249.5 334.804 247.811 333.116 248.937 331.991C250.064 330.865 254.569 320.175 254.569 320.175C254.569 320.175 256.822 279.662 257.385 277.974C257.948 276.286 257.385 268.409 257.385 264.47C257.385 260.531 256.822 244.777 258.512 240.838C260.201 236.899 261.891 188.509 270.902 182.883C279.913 177.256 336.795 177.819 336.795 177.819Z" fill="#2F2E41"/>
<path d="M265.27 344.37C265.27 344.37 276.534 367.439 268.649 370.253C260.764 373.066 250.627 370.815 248.374 374.191C246.121 377.567 221.341 381.506 220.778 373.066C220.214 364.626 247.811 348.871 247.811 348.871L251.406 343.088L265.27 344.37Z" fill="#2F2E41"/>
<path d="M356.507 361.25C356.507 361.25 367.771 384.319 359.886 387.133C352.002 389.946 341.864 387.695 339.611 391.071C337.359 394.447 312.578 398.386 312.015 389.946C311.452 381.506 339.048 365.751 339.048 365.751L342.643 359.968L356.507 361.25Z" fill="#2F2E41"/>
<path d="M304.412 71.7548C314.676 71.7548 322.997 63.4415 322.997 53.1866C322.997 42.9317 314.676 34.6184 304.412 34.6184C294.148 34.6184 285.827 42.9317 285.827 53.1866C285.827 63.4415 294.148 71.7548 304.412 71.7548Z" fill="#A0616A"/>
<path d="M317.084 63.0334L314.831 79.3509L297.935 92.2924L293.43 86.103V64.7215L317.084 63.0334Z" fill="#A0616A"/>
<path d="M290.614 83.8522C290.614 83.8522 308.073 85.5402 317.084 79.3508L335.106 185.696C335.106 185.696 271.465 190.76 268.649 187.384V154.186L279.913 100.17L290.614 83.8522Z" fill="#3F3D56"/>
<path d="M315.533 74.2666L321.589 79.351C321.589 79.351 346.37 83.2897 344.68 90.0418L337.922 169.941L340.175 196.949C340.175 196.949 321.026 191.885 306.383 196.949C291.74 202.014 303.374 88.1268 303.374 88.1268C303.374 88.1268 316.798 75.9342 315.533 74.2666Z" fill="#D0CDE1"/>
<path d="M293.43 80.4253C293.43 80.4253 275.407 93.4177 273.155 101.858C270.902 110.298 263.58 199.2 263.58 199.2C263.58 199.2 266.96 197.512 268.649 200.325C270.339 203.139 296.246 84.8757 293.43 80.4253Z" fill="#D0CDE1"/>
<path d="M285.835 52.3777C285.835 52.3777 283.823 49.3626 284.597 46.1154C285.06 44.2719 285.242 42.3694 285.139 40.4716C285.139 40.4716 286.764 35.2144 288.389 32.2765C290.014 29.3387 289.24 28.1017 294.348 27.1739C299.455 26.2462 297.366 19.5973 310.83 26.7874C311.285 27.4211 311.917 27.9061 312.647 28.1813C313.377 28.4565 314.172 28.5095 314.932 28.3336C317.718 27.7924 318.724 31.658 318.724 31.658C318.724 31.658 320.581 30.5756 321.277 32.1219C321.974 33.6681 326.94 31.1939 326.94 41.6311C326.94 52.0682 321.289 61.3913 321.289 61.3913C321.289 61.3913 321.703 43.8347 312.494 42.0566C303.285 40.2784 293.38 35.0984 290.981 41.7473C289.687 45.479 287.959 49.0467 285.835 52.3777Z" fill="#2F2E41"/>
<path d="M321.49 56.5519C322.494 56.5519 323.307 55.4686 323.307 54.1323C323.307 52.796 322.494 51.7126 321.49 51.7126C320.487 51.7126 319.674 52.796 319.674 54.1323C319.674 55.4686 320.487 56.5519 321.49 56.5519Z" fill="#A0616A"/>
<path d="M245.158 228.135C240.702 225.458 235.329 225.662 233.286 225.867C234.064 227.764 236.398 232.604 240.854 235.283C245.322 237.967 250.688 237.757 252.728 237.554C251.95 235.657 249.616 230.815 245.158 228.135Z" fill="#D0CDE1"/>
<path d="M266.1 281.265H238.246C236.584 281.265 234.99 281.925 233.815 283.099C232.64 284.273 231.979 285.866 231.979 287.526C231.979 289.187 232.64 290.779 233.815 291.953C234.99 293.128 236.584 293.787 238.246 293.787H266.1C267.761 293.786 269.353 293.125 270.527 291.951C271.701 290.777 272.361 289.186 272.361 287.526C272.361 285.867 271.701 284.275 270.527 283.101C269.353 281.927 267.761 281.266 266.1 281.265Z" fill="#D0CDE1"/>
<path d="M392.229 215.175H236.064C234.248 215.175 232.449 215.532 230.77 216.227C229.092 216.921 227.567 217.939 226.283 219.223C224.998 220.506 223.979 222.03 223.284 223.706C222.589 225.383 222.231 227.18 222.231 228.995V305.012C222.231 308.677 223.688 312.192 226.283 314.784C228.877 317.376 232.395 318.832 236.064 318.832H392.229C394.045 318.832 395.844 318.475 397.523 317.78C399.201 317.086 400.726 316.068 402.011 314.784C403.295 313.501 404.314 311.977 405.009 310.3C405.704 308.624 406.062 306.826 406.062 305.012V228.995C406.062 227.18 405.704 225.383 405.009 223.706C404.314 222.03 403.295 220.506 402.011 219.223C400.726 217.939 399.201 216.921 397.523 216.227C395.844 215.532 394.045 215.175 392.229 215.175ZM232.2 224.603C232.509 224.547 239.821 223.304 245.876 226.944C251.931 230.583 254.258 237.621 254.353 237.918L254.598 238.677L253.813 238.817C252.692 238.991 251.558 239.075 250.424 239.065C247.674 239.065 243.689 238.611 240.136 236.475C234.081 232.836 231.755 225.798 231.659 225.501L231.415 224.742L232.2 224.603ZM266.1 295.179H238.246C236.215 295.179 234.267 294.373 232.83 292.937C231.394 291.502 230.587 289.556 230.587 287.526C230.587 285.497 231.394 283.55 232.83 282.115C234.267 280.68 236.215 279.874 238.246 279.874H266.1C268.131 279.874 270.079 280.68 271.516 282.115C272.952 283.55 273.759 285.497 273.759 287.526C273.759 289.556 272.952 291.502 271.516 292.937C270.079 294.373 268.131 295.179 266.1 295.179ZM392.832 293.787C392.826 296 391.943 298.119 390.377 299.683C388.812 301.248 386.69 302.129 384.476 302.136H363.586C361.372 302.129 359.25 301.248 357.685 299.683C356.119 298.119 355.237 296 355.23 293.787V281.265C355.237 279.053 356.119 276.933 357.685 275.369C359.25 273.805 361.372 272.923 363.586 272.917H384.476C386.69 272.923 388.812 273.805 390.377 275.369C391.943 276.933 392.826 279.053 392.832 281.265L392.832 293.787Z" fill="#D0CDE1"/>
<path d="M370.201 291.352H361.149C360.503 291.352 359.883 291.609 359.426 292.065C358.969 292.522 358.712 293.141 358.712 293.787C358.712 294.433 358.969 295.052 359.426 295.509C359.883 295.966 360.503 296.222 361.149 296.222H370.201C370.848 296.222 371.468 295.966 371.925 295.509C372.382 295.052 372.638 294.433 372.638 293.787C372.638 293.141 372.382 292.522 371.925 292.065C371.468 291.609 370.848 291.352 370.201 291.352ZM370.201 294.831H361.149C361.012 294.831 360.875 294.804 360.748 294.752C360.621 294.7 360.506 294.623 360.409 294.526C360.312 294.429 360.234 294.314 360.182 294.187C360.129 294.06 360.102 293.924 360.102 293.787C360.102 293.65 360.129 293.514 360.182 293.387C360.234 293.261 360.312 293.145 360.409 293.048C360.506 292.952 360.621 292.875 360.748 292.822C360.875 292.77 361.012 292.743 361.149 292.744H370.201C370.339 292.743 370.475 292.77 370.602 292.822C370.729 292.875 370.844 292.952 370.941 293.048C371.039 293.145 371.116 293.261 371.168 293.387C371.221 293.514 371.248 293.65 371.248 293.787C371.248 293.924 371.221 294.06 371.168 294.187C371.116 294.314 371.039 294.429 370.941 294.526C370.844 294.623 370.729 294.7 370.602 294.752C370.475 294.804 370.339 294.831 370.201 294.831Z" fill="#D0CDE1"/>
<path d="M386.913 291.352H377.861C377.541 291.352 377.223 291.414 376.927 291.537C376.631 291.659 376.362 291.838 376.135 292.064C375.909 292.29 375.729 292.559 375.606 292.855C375.483 293.15 375.42 293.467 375.42 293.787C375.42 294.107 375.483 294.424 375.606 294.72C375.729 295.016 375.909 295.284 376.135 295.51C376.362 295.736 376.631 295.916 376.927 296.038C377.223 296.16 377.541 296.223 377.861 296.222H386.913C387.56 296.222 388.179 295.966 388.637 295.509C389.094 295.052 389.35 294.433 389.35 293.787C389.35 293.141 389.094 292.522 388.637 292.065C388.179 291.609 387.56 291.352 386.913 291.352ZM386.913 294.831H377.861C377.724 294.831 377.587 294.804 377.46 294.752C377.333 294.7 377.218 294.623 377.121 294.526C377.024 294.429 376.946 294.314 376.894 294.187C376.841 294.06 376.814 293.924 376.814 293.787C376.814 293.65 376.841 293.514 376.894 293.387C376.946 293.261 377.024 293.145 377.121 293.048C377.218 292.952 377.333 292.875 377.46 292.822C377.587 292.77 377.724 292.743 377.861 292.744H386.913C387.19 292.744 387.455 292.855 387.65 293.05C387.846 293.246 387.955 293.511 387.955 293.787C387.955 294.064 387.846 294.329 387.65 294.524C387.455 294.72 387.19 294.83 386.913 294.831Z" fill="#D0CDE1"/>
<path d="M370.201 285.091H361.149C360.503 285.091 359.883 285.348 359.426 285.804C358.969 286.261 358.712 286.88 358.712 287.526C358.712 288.172 358.969 288.791 359.426 289.248C359.883 289.705 360.503 289.961 361.149 289.961H370.201C370.522 289.962 370.839 289.899 371.135 289.777C371.431 289.655 371.7 289.475 371.927 289.249C372.154 289.023 372.333 288.755 372.456 288.459C372.579 288.163 372.642 287.846 372.642 287.526C372.642 287.206 372.579 286.889 372.456 286.594C372.333 286.298 372.154 286.029 371.927 285.803C371.7 285.577 371.431 285.398 371.135 285.276C370.839 285.153 370.522 285.091 370.201 285.091ZM370.201 288.57H361.149C360.872 288.57 360.606 288.46 360.41 288.264C360.214 288.068 360.104 287.803 360.104 287.526C360.104 287.249 360.214 286.984 360.41 286.788C360.606 286.593 360.872 286.483 361.149 286.483H370.201C370.478 286.483 370.744 286.593 370.94 286.788C371.136 286.984 371.246 287.249 371.246 287.526C371.246 287.803 371.136 288.068 370.94 288.264C370.744 288.46 370.478 288.57 370.201 288.57Z" fill="#D0CDE1"/>
<path d="M386.913 285.091H377.861C377.541 285.091 377.223 285.153 376.927 285.276C376.631 285.398 376.362 285.577 376.135 285.803C375.909 286.029 375.729 286.298 375.606 286.594C375.483 286.889 375.42 287.206 375.42 287.526C375.42 287.846 375.483 288.163 375.606 288.459C375.729 288.755 375.909 289.023 376.135 289.249C376.362 289.475 376.631 289.655 376.927 289.777C377.223 289.899 377.541 289.962 377.861 289.961H386.913C387.56 289.961 388.179 289.705 388.637 289.248C389.094 288.791 389.35 288.172 389.35 287.526C389.35 286.88 389.094 286.261 388.637 285.804C388.179 285.348 387.56 285.091 386.913 285.091ZM386.913 288.57H377.861C377.584 288.57 377.318 288.46 377.122 288.264C376.926 288.068 376.816 287.803 376.816 287.526C376.816 287.249 376.926 286.984 377.122 286.788C377.318 286.593 377.584 286.483 377.861 286.483H386.913C387.19 286.483 387.456 286.593 387.652 286.788C387.848 286.984 387.958 287.249 387.958 287.526C387.958 287.803 387.848 288.068 387.652 288.264C387.456 288.46 387.19 288.57 386.913 288.57Z" fill="#D0CDE1"/>
<path d="M370.201 278.83H361.149C360.503 278.83 359.883 279.087 359.426 279.543C358.969 280 358.712 280.619 358.712 281.265C358.712 281.911 358.969 282.53 359.426 282.987C359.883 283.443 360.503 283.7 361.149 283.7H370.201C370.848 283.7 371.468 283.443 371.925 282.987C372.382 282.53 372.638 281.911 372.638 281.265C372.638 280.619 372.382 280 371.925 279.543C371.468 279.087 370.848 278.83 370.201 278.83ZM370.201 282.309H361.149C360.872 282.309 360.606 282.199 360.41 282.003C360.214 281.807 360.104 281.542 360.104 281.265C360.104 280.988 360.214 280.723 360.41 280.527C360.606 280.331 360.872 280.221 361.149 280.221H370.201C370.478 280.221 370.744 280.331 370.94 280.527C371.136 280.723 371.246 280.988 371.246 281.265C371.246 281.542 371.136 281.807 370.94 282.003C370.744 282.199 370.478 282.309 370.201 282.309Z" fill="#D0CDE1"/>
<path d="M386.913 278.83H377.861C377.541 278.83 377.223 278.892 376.927 279.014C376.631 279.137 376.362 279.316 376.135 279.542C375.909 279.768 375.729 280.037 375.606 280.332C375.483 280.628 375.42 280.945 375.42 281.265C375.42 281.585 375.483 281.902 375.606 282.198C375.729 282.493 375.909 282.762 376.135 282.988C376.362 283.214 376.631 283.393 376.927 283.516C377.223 283.638 377.541 283.7 377.861 283.7H386.913C387.559 283.699 388.178 283.442 388.634 282.985C389.09 282.529 389.347 281.91 389.347 281.265C389.347 280.62 389.09 280.001 388.634 279.545C388.178 279.088 387.559 278.831 386.913 278.83ZM386.913 282.309H377.861C377.584 282.309 377.318 282.199 377.122 282.003C376.926 281.807 376.816 281.542 376.816 281.265C376.816 280.988 376.926 280.723 377.122 280.527C377.318 280.331 377.584 280.221 377.861 280.221H386.913C387.19 280.221 387.456 280.331 387.652 280.527C387.848 280.723 387.958 280.988 387.958 281.265C387.958 281.542 387.848 281.807 387.652 282.003C387.456 282.199 387.19 282.309 386.913 282.309Z" fill="#D0CDE1"/>
<path d="M342.991 198.075L338.953 211.236C338.953 211.236 337.922 235.774 324.405 232.398C310.889 229.022 328.348 200.325 328.348 200.325L332.29 194.136L342.991 198.075Z" fill="#A0616A"/>
<path d="M266.396 198.075L262.359 211.236C262.359 211.236 261.328 235.774 247.811 232.398C234.294 229.022 251.753 200.325 251.753 200.325L255.696 194.136L266.396 198.075Z" fill="#A0616A"/>
<path d="M340.175 86.1029C340.175 86.1029 349.186 83.8522 352.002 99.0444C354.818 114.237 358.197 157.562 358.197 157.562L344.68 203.139C344.68 203.139 331.164 195.824 328.348 196.949L338.984 157.382L330.037 117.05C330.037 117.05 337.922 86.1029 340.175 86.1029Z" fill="#D0CDE1"/>
<path opacity="0.15" d="M327.073 117.82L338.9 157.207L327.073 197.156L333.831 157.207L327.073 117.82Z" fill="black"/>
<path d="M273.155 117.05L252.88 196.949C252.88 196.949 263.574 200.476 267.517 203.289L273.155 117.05Z" fill="#D0CDE1"/>
<path d="M60.4657 317.845C91.57 317.845 116.785 292.653 116.785 261.578C116.785 230.502 91.57 205.31 60.4657 205.31C29.3614 205.31 4.14636 230.502 4.14636 261.578C4.14636 292.653 29.3614 317.845 60.4657 317.845Z" fill="#3F3D56"/>
<path opacity="0.1" d="M60.4657 309.967C87.2154 309.967 108.9 288.303 108.9 261.578C108.9 234.853 87.2154 213.188 60.4657 213.188C33.716 213.188 12.0311 234.853 12.0311 261.578C12.0311 288.303 33.716 309.967 60.4657 309.967Z" fill="black"/>
<path d="M58.1448 290.132V283.089C54.5813 283.02 50.8948 281.764 48.7445 280.021L50.219 275.349C52.7743 277.262 55.8733 278.312 59.0664 278.347C63.4288 278.347 66.3779 275.488 66.3779 271.513C66.3779 267.678 63.9816 265.307 59.4351 263.215C53.1681 260.426 49.2974 257.218 49.2974 251.151C49.2974 245.363 52.9224 240.97 58.575 239.924V232.881H62.3842V239.646C65.2247 239.684 67.9953 240.531 70.3716 242.086L68.8354 246.689C66.5564 245.13 63.8558 244.303 61.094 244.317C56.3632 244.317 54.5813 247.525 54.5813 250.315C54.5813 253.941 56.8546 255.754 62.2 258.264C68.5282 261.193 71.7233 264.819 71.7233 271.025C71.7233 276.534 68.344 281.695 62.0155 282.879V290.132H58.1448Z" fill="#4971F1"/>
<path d="M119.96 376.03C80.1933 381.955 39.7668 381.955 0 376.03V362.525C39.809 367.852 80.1511 367.852 119.96 362.525V376.03Z" fill="#3F3D56"/>
<path d="M119.96 355.211C80.1933 361.136 39.7668 361.136 0 355.211V341.707C39.809 347.033 80.1511 347.033 119.96 341.707V355.211Z" fill="#3F3D56"/>
<path d="M119.96 334.392C80.1933 340.317 39.7668 340.317 0 334.392V320.888C39.809 326.214 80.1511 326.214 119.96 320.888V334.392Z" fill="#3F3D56"/>
</g>
<defs>
<clipPath id="clip0">
<rect width="508" height="395" fill="white"/>
</clipPath>
</defs>
</svg>
