<svg width="440" height="439" viewBox="0 0 440 439" fill="none" xmlns="http://www.w3.org/2000/svg">
<path d="M354.345 119.312C406.922 186.277 452.373 258.083 436.371 311.063C420.504 364.044 343.185 398.199 274.606 419.042C206.161 439.884 146.457 447.683 102.486 425.362C58.5151 403.174 30.4112 351.001 30.0078 305.012C29.4699 259.159 56.767 219.491 86.7534 157.77C116.605 96.0487 149.281 12.1404 195.538 1.24851C241.795 -9.64342 301.634 52.4809 354.345 119.312Z" fill="#C6D2F8"/>
<g clip-path="url(#clip0)">
<path d="M210.694 145.737C230.323 145.737 246.236 129.83 246.236 110.208C246.236 90.5856 230.323 74.6786 210.694 74.6786C191.064 74.6786 175.151 90.5856 175.151 110.208C175.151 129.83 191.064 145.737 210.694 145.737Z" fill="#A0616A"/>
<path d="M184.166 127.972C184.166 127.972 190.862 178.434 180.56 184.098C170.258 189.762 241.857 190.277 241.857 190.277C241.857 190.277 225.889 146.509 233.101 133.122L184.166 127.972Z" fill="#A0616A"/>
<path d="M294.14 190.532L288.185 217.637L275.594 274.983L275.217 278.123L270.872 314.48L267.982 338.633L266.044 354.858C254.26 360.912 245.72 365.091 245.72 365.091C245.72 365.091 244.985 361.409 243.801 356.698C235.531 359.177 220.229 363.289 207.261 364.11C211.984 369.372 214.154 374.314 211.21 377.962C202.327 388.959 165.652 365.922 152.824 357.331C152.525 359.388 152.412 361.468 152.486 363.545L142.669 355.998L143.641 338.633L145.279 309.253L147.338 272.408C146.689 270.83 146.145 269.211 145.709 267.562C142.703 256.874 139.054 235.533 136.255 217.637C134.003 203.235 132.312 191.064 131.954 188.474C131.906 188.136 131.881 187.962 131.881 187.962L186.222 163.959C190.084 172.912 208.117 175.603 208.117 175.603C223.057 174.574 234.768 166.698 234.768 166.698L294.14 190.532Z" fill="#D0CDE1"/>
<path d="M249.843 354.795C249.843 354.795 247.542 355.582 243.801 356.698C235.531 359.177 220.229 363.289 207.261 364.11C196.097 364.825 186.662 363.105 184.936 355.824C184.197 352.693 185.246 350.118 187.532 348.002C194.357 341.677 212.182 339.411 226.319 338.633C230.311 338.416 234.004 338.314 237.078 338.276C242.298 338.208 245.72 338.314 245.72 338.314L245.802 338.633L249.843 354.795Z" fill="#A0616A"/>
<path d="M181.126 76.6005L174.48 73.9409C174.48 73.9409 188.376 58.6488 207.708 59.9786L202.271 53.9946C202.271 53.9946 215.562 48.6757 227.644 62.638C233.996 69.9777 241.345 78.6052 245.926 88.3239H253.043L250.073 94.8618L260.469 101.4L249.798 100.225C250.434 103.806 250.532 107.461 250.088 111.07C249.63 114.68 247.787 117.971 244.948 120.249C244.948 120.249 236.706 103.195 236.706 100.536V107.185C236.706 107.185 230.061 101.201 230.061 97.2116L226.436 101.866L224.624 94.5521L202.271 101.866L205.895 95.8819L192 97.8765L197.438 90.5628C197.438 90.5628 181.73 99.2062 181.126 106.52C180.522 113.833 175.924 120.764 175.924 120.764C175.924 120.764 163.606 86.5736 181.126 76.6005Z" fill="#2F2E41"/>
<path d="M332.772 315.142C329.152 319.066 320.182 324.975 309.307 331.372C305.261 333.749 300.955 336.198 296.561 338.633C286.078 344.446 275.102 350.205 266.044 354.858C254.26 360.911 245.72 365.091 245.72 365.091C245.72 365.091 244.985 361.409 243.801 356.698C242.216 350.393 239.828 342.242 237.339 338.633C237.252 338.508 237.165 338.392 237.078 338.276C236.353 337.324 235.623 336.768 234.903 336.768L270.872 314.48L286.416 304.846L275.218 278.123L261.172 244.602L269.65 217.637L278.171 190.532H294.14C294.14 190.532 299.428 202.07 306.189 218.159C307.199 220.565 308.243 223.073 309.307 225.662C323.217 259.483 340.559 306.711 332.772 315.142Z" fill="#D0CDE1"/>
<path d="M211.21 377.962C202.327 388.959 165.652 365.922 152.824 357.331C150.03 355.462 148.368 354.278 148.368 354.278L160.103 338.633L163.82 333.681C163.82 333.681 167.145 335.445 172.061 338.314C172.239 338.421 172.418 338.527 172.602 338.633C176.841 341.122 182.162 344.373 187.532 348.002C194.941 353.012 202.433 358.728 207.261 364.11C211.984 369.372 214.154 374.314 211.21 377.962Z" fill="#A0616A"/>
<path d="M172.061 338.314C170.749 338.309 169.439 338.416 168.146 338.633C157.034 340.542 153.757 350.596 152.824 357.331C152.525 359.388 152.412 361.468 152.486 363.545L142.669 355.998L139.093 353.249C130.485 350.248 122.814 344.919 116.163 338.633C110.394 333.084 105.219 326.949 100.721 320.327C96.2415 313.8 92.2481 306.953 88.7732 299.841C87.8036 297.856 87.2824 295.683 87.2465 293.474C87.2106 291.266 87.6608 289.077 88.5654 287.062L100.721 259.981L118.488 220.401C118.619 219.459 118.762 218.538 118.918 217.637C122.442 197.442 131.881 188.474 131.881 188.474H139.093L143.916 217.637L149.91 253.869L145.709 267.562L136.004 299.184L145.279 309.253L172.061 338.314Z" fill="#D0CDE1"/>
<path d="M180.222 253.898L186.387 261.088C188.677 260.651 191.069 260.138 193.533 259.562L191.762 253.898L196.092 258.947C222.19 252.53 254.539 240.055 254.539 240.055C254.539 240.055 219.615 242.615 193.539 236.92C182.001 234.4 170.131 240.118 165.396 250.933C162.644 257.219 163.077 262.665 172.837 262.665C176.135 262.609 179.423 262.299 182.674 261.74L180.222 253.898Z" fill="#6688F8"/>
<path d="M320.762 372.068V375C320.763 375.805 320.614 376.603 320.322 377.353C320.192 377.688 320.035 378.011 319.853 378.32C319.277 379.286 318.46 380.086 317.481 380.642C316.502 381.198 315.396 381.49 314.271 381.489H98.4399C97.3144 381.49 96.2081 381.198 95.2295 380.642C94.2508 380.086 93.4334 379.286 92.8574 378.32C92.6752 378.011 92.5184 377.688 92.3886 377.353C92.0963 376.603 91.9471 375.805 91.9487 375V372.068C91.9485 371.215 92.1163 370.371 92.4424 369.584C92.7685 368.797 93.2466 368.081 93.8494 367.479C94.4523 366.876 95.1679 366.398 95.9555 366.072C96.7432 365.746 97.5874 365.579 98.4399 365.579H110.881V364.211C110.881 364.176 110.888 364.141 110.901 364.108C110.915 364.075 110.935 364.045 110.96 364.02C110.985 363.995 111.015 363.975 111.048 363.961C111.081 363.948 111.116 363.941 111.151 363.941H117.643C117.678 363.941 117.713 363.948 117.746 363.961C117.779 363.975 117.809 363.995 117.834 364.02C117.859 364.045 117.879 364.075 117.893 364.108C117.906 364.141 117.913 364.176 117.913 364.211V365.579H121.968V364.211C121.968 364.176 121.975 364.141 121.989 364.108C122.002 364.075 122.022 364.045 122.047 364.02C122.073 363.995 122.102 363.975 122.135 363.961C122.168 363.948 122.203 363.941 122.239 363.941H128.73C128.766 363.941 128.801 363.948 128.834 363.961C128.867 363.975 128.896 363.995 128.922 364.02C128.947 364.045 128.967 364.075 128.98 364.108C128.994 364.141 129.001 364.176 129.001 364.211V365.579H133.061V364.211C133.061 364.176 133.068 364.141 133.081 364.108C133.095 364.075 133.115 364.045 133.14 364.02C133.165 363.995 133.195 363.975 133.228 363.961C133.261 363.948 133.296 363.941 133.331 363.941H139.823C139.858 363.941 139.893 363.948 139.926 363.961C139.959 363.975 139.989 363.995 140.014 364.02C140.039 364.045 140.059 364.075 140.073 364.108C140.086 364.141 140.093 364.176 140.093 364.211V365.579H144.148V364.211C144.148 364.176 144.155 364.141 144.169 364.108C144.182 364.075 144.202 364.045 144.227 364.02C144.253 363.995 144.282 363.975 144.315 363.961C144.348 363.948 144.383 363.941 144.419 363.941H150.91C150.946 363.941 150.981 363.948 151.014 363.961C151.047 363.975 151.076 363.995 151.102 364.02C151.127 364.045 151.147 364.075 151.16 364.108C151.174 364.141 151.181 364.176 151.181 364.211V365.579H155.236V364.211C155.236 364.176 155.243 364.141 155.256 364.108C155.27 364.075 155.29 364.045 155.315 364.02C155.34 363.995 155.37 363.975 155.403 363.961C155.436 363.948 155.471 363.941 155.507 363.941H161.998C162.033 363.941 162.068 363.948 162.101 363.961C162.134 363.975 162.164 363.995 162.189 364.02C162.214 364.045 162.234 364.075 162.248 364.108C162.261 364.141 162.268 364.176 162.268 364.211V365.579H166.328V364.211C166.328 364.176 166.335 364.141 166.349 364.108C166.362 364.075 166.382 364.045 166.407 364.02C166.433 363.995 166.462 363.975 166.495 363.961C166.528 363.948 166.563 363.941 166.599 363.941H173.09C173.126 363.941 173.161 363.948 173.194 363.961C173.227 363.975 173.256 363.995 173.282 364.02C173.307 364.045 173.327 364.075 173.34 364.108C173.354 364.141 173.361 364.176 173.361 364.211V365.579H177.416V364.211C177.416 364.176 177.423 364.141 177.436 364.108C177.45 364.075 177.47 364.045 177.495 364.02C177.52 363.995 177.55 363.975 177.583 363.961C177.616 363.948 177.651 363.941 177.687 363.941H228.533C228.568 363.941 228.604 363.948 228.636 363.961C228.669 363.975 228.699 363.995 228.724 364.02C228.749 364.045 228.769 364.075 228.783 364.108C228.797 364.141 228.804 364.176 228.803 364.211V365.579H232.863V364.211C232.863 364.176 232.87 364.141 232.884 364.108C232.897 364.075 232.917 364.045 232.943 364.02C232.968 363.995 232.998 363.975 233.03 363.961C233.063 363.948 233.099 363.941 233.134 363.941H239.625C239.697 363.942 239.765 363.97 239.816 364.021C239.866 364.072 239.895 364.14 239.896 364.211V365.579H243.951V364.211C243.951 364.176 243.958 364.141 243.972 364.108C243.985 364.075 244.005 364.045 244.03 364.02C244.055 363.995 244.085 363.975 244.118 363.961C244.151 363.948 244.186 363.941 244.222 363.941H250.713C250.748 363.941 250.784 363.948 250.816 363.961C250.849 363.975 250.879 363.995 250.904 364.02C250.93 364.045 250.949 364.075 250.963 364.108C250.977 364.141 250.984 364.176 250.984 364.211V365.579H255.039V364.211C255.039 364.176 255.046 364.141 255.059 364.108C255.073 364.075 255.093 364.045 255.118 364.02C255.143 363.995 255.173 363.975 255.206 363.961C255.239 363.948 255.274 363.941 255.309 363.941H261.8C261.836 363.941 261.871 363.948 261.904 363.961C261.937 363.975 261.967 363.995 261.992 364.02C262.017 364.045 262.037 364.075 262.051 364.108C262.064 364.141 262.071 364.176 262.071 364.211V365.579H266.131V364.211C266.131 364.176 266.138 364.141 266.152 364.108C266.165 364.075 266.185 364.045 266.21 364.02C266.235 363.995 266.265 363.975 266.298 363.961C266.331 363.948 266.366 363.941 266.402 363.941H272.893C272.964 363.942 273.032 363.971 273.082 364.021C273.131 364.072 273.159 364.14 273.159 364.211V365.579H277.219V364.211C277.219 364.176 277.226 364.141 277.239 364.108C277.253 364.075 277.273 364.045 277.298 364.02C277.323 363.995 277.353 363.975 277.386 363.961C277.419 363.948 277.454 363.941 277.489 363.941H283.98C284.016 363.941 284.051 363.948 284.084 363.961C284.117 363.975 284.147 363.995 284.172 364.02C284.197 364.045 284.217 364.075 284.231 364.108C284.244 364.141 284.251 364.176 284.251 364.211V365.579H288.306V364.211C288.306 364.176 288.313 364.141 288.327 364.108C288.34 364.075 288.36 364.045 288.385 364.02C288.41 363.995 288.44 363.975 288.473 363.961C288.506 363.948 288.541 363.941 288.577 363.941H295.068C295.104 363.941 295.139 363.948 295.172 363.961C295.204 363.975 295.234 363.995 295.26 364.02C295.285 364.045 295.305 364.075 295.318 364.108C295.332 364.141 295.339 364.176 295.339 364.211V365.579H314.271C315.123 365.579 315.967 365.746 316.755 366.072C317.543 366.398 318.258 366.876 318.861 367.479C319.464 368.081 319.942 368.797 320.268 369.584C320.594 370.371 320.762 371.215 320.762 372.068Z" fill="#3F3D56"/>
<path d="M383.522 377.353H29.2416V378.32H383.522V377.353Z" fill="#3F3D56"/>
<path d="M303.383 248.559H222.936V246.902H186.459V248.559H105.68C104.237 248.559 102.853 249.132 101.833 250.153C100.812 251.173 100.239 252.556 100.239 253.999V364.115C100.239 365.558 100.812 366.941 101.833 367.962C102.853 368.982 104.237 369.555 105.68 369.555H303.383C304.826 369.555 306.21 368.982 307.231 367.962C308.251 366.941 308.825 365.558 308.825 364.115V253.999C308.825 253.285 308.684 252.577 308.411 251.917C308.137 251.257 307.736 250.658 307.231 250.153C306.726 249.648 306.126 249.247 305.466 248.973C304.805 248.7 304.098 248.559 303.383 248.559Z" fill="#3F3D56"/>
<path d="M204.69 299.082C211.364 299.082 216.773 293.675 216.773 287.004C216.773 280.333 211.364 274.925 204.69 274.925C198.017 274.925 192.607 280.333 192.607 287.004C192.607 293.675 198.017 299.082 204.69 299.082Z" stroke="#D0CDE1" stroke-width="2" stroke-miterlimit="10"/>
<path d="M200.823 303.431C207.497 303.431 212.907 298.023 212.907 291.352C212.907 284.681 207.497 279.273 200.823 279.273C194.15 279.273 188.74 284.681 188.74 291.352C188.74 298.023 194.15 303.431 200.823 303.431Z" fill="#D0CDE1"/>
<path d="M52.4152 372.472H38.882V386H52.4152V372.472Z" fill="#D0CDE1"/>
<path d="M44.2004 361.843V378.27H60.6336V361.843H44.2004ZM59.9183 377.555H44.9109V362.558H59.9183V377.555Z" fill="#3F3D56"/>
<path d="M365.613 372.472H352.079V386H365.613V372.472Z" fill="#D0CDE1"/>
<path d="M357.398 361.843V378.27H373.831V361.843H357.398ZM373.116 377.555H358.108V362.558H373.116V377.555Z" fill="#3F3D56"/>
<path d="M45.7133 164.18C66.8921 164.18 84.0608 147.017 84.0608 125.846C84.0608 104.675 66.8921 87.5128 45.7133 87.5128C24.5345 87.5128 7.36572 104.675 7.36572 125.846C7.36572 147.017 24.5345 164.18 45.7133 164.18Z" fill="#6688F8"/>
<path d="M59.0769 80.2933C55.6047 79.8519 52.0906 79.8519 48.6185 80.2933C40.883 81.3086 33.6013 84.5208 27.6374 89.5489C21.6734 94.5769 17.2776 101.21 14.9714 108.66C13.9226 112.056 13.3286 115.575 13.2051 119.126C13.1877 119.62 13.176 120.12 13.176 120.619C13.1868 131.399 17.4753 141.734 25.1004 149.356C32.7255 156.978 43.0642 161.265 53.8477 161.276C54.7134 161.276 55.5791 161.247 56.4332 161.195C58.4382 161.069 60.4308 160.793 62.3946 160.37C71.7721 158.354 80.1352 153.09 86.007 145.509C91.8788 137.927 94.8814 128.514 94.4845 118.934C94.0876 109.354 90.3167 100.222 83.8378 93.1519C77.359 86.0814 68.589 81.5271 59.0769 80.2933H59.0769ZM66.5779 158.012H66.5721C63.2966 159.129 59.8871 159.807 56.4332 160.027C55.5791 160.085 54.7134 160.114 53.8476 160.114C43.373 160.101 33.331 155.936 25.9243 148.532C18.5176 141.128 14.3509 131.09 14.338 120.619C14.338 120.12 14.3497 119.62 14.3671 119.126C14.7665 108.922 19.0992 99.2676 26.4581 92.1842C33.817 85.1007 43.6317 81.1374 53.8476 81.1239C63.208 81.1244 72.2642 84.4468 79.4027 90.4991C86.5413 96.5514 91.2985 104.941 92.827 114.172C94.3554 123.403 92.5557 132.877 87.7485 140.906C82.9413 148.935 75.4389 154.997 66.5779 158.012H66.5779Z" fill="#3F3D56"/>
<path d="M54.4287 83.4471H53.2666V91.5785H54.4287V83.4471Z" fill="#3F3D56"/>
<path d="M27.9644 93.9238L27.1427 94.7452L32.8945 100.495L33.7162 99.6736L27.9644 93.9238Z" fill="#3F3D56"/>
<path d="M16.6621 120.038V121.2H24.7964V120.038H16.6621Z" fill="#3F3D56"/>
<path d="M27.1427 146.493L27.9644 147.314L33.7162 141.565L32.8945 140.743L27.1427 146.493Z" fill="#3F3D56"/>
<path d="M73.9791 99.6736L74.8008 100.495L80.5526 94.7452L79.7309 93.9238L73.9791 99.6736Z" fill="#3F3D56"/>
<path d="M82.8989 120.038V121.2H91.0332V120.038H82.8989Z" fill="#3F3D56"/>
<path d="M74.8008 140.743L73.9791 141.565L79.731 147.314L80.5527 146.493L74.8008 140.743Z" fill="#3F3D56"/>
<path d="M54.4287 149.66H53.2666V157.791H54.4287V149.66Z" fill="#3F3D56"/>
<path d="M55.5907 118.296C55.0878 117.919 54.4762 117.715 53.8476 117.715C53.219 117.715 52.6074 117.919 52.1046 118.296C51.7603 118.557 51.4769 118.89 51.2737 119.272C51.0163 119.763 50.905 120.317 50.9529 120.87C51.0007 121.422 51.2058 121.949 51.5439 122.389C51.8819 122.829 52.3388 123.163 52.8606 123.351C53.3823 123.539 53.9471 123.574 54.4882 123.452C55.0292 123.33 55.5239 123.055 55.9139 122.661C56.3038 122.266 56.5726 121.769 56.6886 121.226C56.8045 120.684 56.7628 120.12 56.5682 119.601C56.3737 119.081 56.0345 118.629 55.5907 118.296H55.5907ZM53.8476 122.361C53.3858 122.36 52.9432 122.176 52.6166 121.85C52.29 121.523 52.1059 121.081 52.1046 120.619C52.1068 120.267 52.214 119.923 52.4125 119.632C52.5828 119.385 52.8137 119.187 53.0831 119.056C53.3525 118.925 53.6512 118.865 53.9503 118.883C54.2494 118.901 54.5388 118.996 54.7904 119.159C55.0421 119.321 55.2476 119.546 55.387 119.811C55.5264 120.076 55.595 120.373 55.5861 120.672C55.5773 120.971 55.4913 121.264 55.3365 121.52C55.1817 121.776 54.9634 121.989 54.7026 122.136C54.4417 122.283 54.1473 122.361 53.8476 122.361V122.361Z" fill="#3F3D56"/>
<path d="M59.0768 70.0885H48.6184V80.5431H59.0768V70.0885Z" fill="#3F3D56"/>
<path d="M53.8476 71.8309C61.549 71.8309 67.7922 69.6206 67.7922 66.894C67.7922 64.1674 61.549 61.9571 53.8476 61.9571C46.1463 61.9571 39.9031 64.1674 39.9031 66.894C39.9031 69.6206 46.1463 71.8309 53.8476 71.8309Z" fill="#3F3D56"/>
<path d="M55.5908 98.5482H52.1046V118.296H55.5908V98.5482Z" fill="#3F3D56"/>
<path d="M109.232 159.506H0V160.668H109.232V159.506Z" fill="#3F3D56"/>
<path d="M72.7863 342.773C73.2373 358.21 64.2144 363.867 52.8909 364.197C52.6279 364.205 52.3661 364.21 52.1054 364.212C51.5803 364.216 51.0602 364.207 50.5453 364.185C40.3044 363.76 32.1981 358.326 31.7787 343.97C31.3446 329.113 49.7918 309.81 51.1759 308.382L51.1783 308.381C51.2309 308.326 51.2578 308.299 51.2578 308.299C51.2578 308.299 72.3353 327.338 72.7863 342.773Z" fill="#D0CDE1"/>
<path d="M52.0757 361.858L59.2688 351.165L52.0904 363.008L52.1054 364.212C51.5803 364.216 51.0603 364.207 50.5453 364.185L50.9021 348.719L50.8923 348.599L50.9055 348.576L50.9396 347.115L43.0624 335.682L50.9303 346.021L50.9583 346.33L51.2277 334.644L44.4239 322.791L51.2471 332.591L51.1759 308.382L51.176 308.301L51.1783 308.381L51.63 327.461L57.8309 319.71L51.6503 329.105L51.7856 339.557L57.4917 329.356L51.8066 341.094L51.8819 346.906L60.1801 332.696L51.9072 348.934L52.0757 361.858Z" fill="#3F3D56"/>
<path d="M385.984 342.773C386.435 358.21 377.412 363.867 366.088 364.197C365.825 364.205 365.564 364.21 365.303 364.212C364.778 364.216 364.258 364.207 363.743 364.185C353.502 363.76 345.396 358.326 344.976 343.97C344.542 329.113 362.989 309.81 364.373 308.382L364.376 308.381C364.428 308.326 364.455 308.299 364.455 308.299C364.455 308.299 385.533 327.338 385.984 342.773Z" fill="#D0CDE1"/>
<path d="M365.273 361.858L372.466 351.165L365.288 363.008L365.303 364.212C364.778 364.216 364.258 364.207 363.743 364.185L364.1 348.719L364.09 348.599L364.103 348.576L364.137 347.115L356.26 335.682L364.128 346.021L364.156 346.33L364.425 334.644L357.621 322.791L364.445 332.591L364.373 308.382L364.374 308.301L364.376 308.381L364.828 327.461L371.028 319.71L364.848 329.105L364.983 339.557L370.689 329.356L365.004 341.094L365.079 346.906L373.378 332.696L365.105 348.934L365.273 361.858Z" fill="#3F3D56"/>
</g>
<defs>
<clipPath id="clip0">
<rect y="53" width="386" height="333" fill="white"/>
</clipPath>
</defs>
</svg>
