<svg width="23" height="23" viewBox="0 0 23 23" fill="none" xmlns="http://www.w3.org/2000/svg">
<path d="M19.5824 3.34001C17.4218 1.18745 14.5475 0.00122833 11.4884 0C8.43619 0 5.55733 1.18517 3.38248 3.3372C1.20377 5.49293 0.00280762 8.35775 0 11.3935V11.397V11.3991C0.000350952 13.2365 0.483086 15.0901 1.39942 16.782L0.0314102 23L6.321 21.5693C7.91397 22.3721 9.69137 22.7954 11.484 22.7961H11.4886C14.5403 22.7961 17.4192 21.6108 19.5944 19.4585C21.775 17.3011 22.9765 14.4399 22.9779 11.4023C22.9788 8.386 21.7731 5.52276 19.5824 3.34001ZM11.4884 21.001H11.4844C9.87474 21.0003 8.27984 20.5962 6.87234 19.832L6.57491 19.6705L2.39262 20.6218L3.30106 16.4932L3.12593 16.1912C2.25522 14.6896 1.79512 13.0321 1.79512 11.3972C1.79845 6.10534 6.1464 1.79512 11.4881 1.79512C14.0686 1.79617 16.4933 2.79656 18.3155 4.61169C20.1652 6.45489 21.1835 8.86628 21.1826 11.4017C21.1805 16.6948 16.8317 21.001 11.4884 21.001Z" fill="white"/>
<path d="M8.36233 6.3728H7.85871C7.68341 6.3728 7.39879 6.43843 7.15804 6.70042C6.91711 6.96258 6.23819 7.59622 6.23819 8.88492C6.23819 10.1736 7.17997 11.4188 7.31123 11.5937C7.44266 11.7685 9.12916 14.4975 11.8003 15.5474C14.0202 16.4199 14.4721 16.2463 14.9537 16.2026C15.4356 16.1591 16.5086 15.5692 16.7276 14.9576C16.9466 14.3461 16.9466 13.8218 16.881 13.7123C16.8152 13.6031 16.6399 13.5377 16.3772 13.4068C16.1143 13.2757 14.8263 12.6313 14.5854 12.5438C14.3445 12.4566 14.1694 12.4129 13.9941 12.6752C13.8188 12.937 13.3027 13.5428 13.1493 13.7175C12.9961 13.8925 12.8428 13.9144 12.5799 13.7833C12.317 13.6519 11.4793 13.3704 10.4754 12.4783C9.69402 11.784 9.1518 10.8985 8.99843 10.6363C8.84524 10.3744 8.98211 10.2326 9.11389 10.1018C9.23199 9.98463 9.3915 9.82424 9.52293 9.6714C9.65418 9.51839 9.69156 9.40924 9.7793 9.23447C9.86686 9.05969 9.82299 8.90668 9.75736 8.77577C9.69156 8.64469 9.18724 7.3495 8.95351 6.8315H8.95368C8.7568 6.39526 8.54956 6.38052 8.36233 6.3728Z" fill="white"/>
</svg>
