<svg width="23" height="23" viewBox="0 0 23 23" fill="none" xmlns="http://www.w3.org/2000/svg">
<path d="M19.5824 3.34001C17.4218 1.18745 14.5475 0.00122833 11.4884 0C8.43619 0 5.55733 1.18517 3.38248 3.3372C1.20377 5.49293 0.00280762 8.35775 0 11.3935V11.397V11.3991C0.000350952 13.2365 0.483086 15.0901 1.39942 16.782L0.0314102 23L6.321 21.5693C7.91397 22.3721 9.69137 22.7954 11.484 22.7961H11.4886C14.5403 22.7961 17.4192 21.6108 19.5944 19.4585C21.775 17.3011 22.9765 14.4399 22.9779 11.4023C22.9788 8.386 21.7731 5.52276 19.5824 3.34001ZM11.4884 21.001H11.4844C9.87474 21.0003 8.27984 20.5962 6.87234 19.832L6.57491 19.6705L2.39262 20.6218L3.30106 16.4932L3.12593 16.1912C2.25522 14.6896 1.79512 13.0321 1.79512 11.3972C1.79845 6.10534 6.1464 1.79512 11.4881 1.79512C14.0686 1.79617 16.4933 2.79656 18.3155 4.61169C20.1652 6.45489 21.1835 8.86628 21.1826 11.4017C21.1805 16.6948 16.8317 21.001 11.4884 21.001Z" fill="#FF824D"/>
<path d="M8.36236 6.37274H7.85874C7.68344 6.37274 7.39882 6.43837 7.15807 6.70036C6.91714 6.96252 6.23822 7.59616 6.23822 8.88486C6.23822 10.1736 7.18 11.4187 7.31126 11.5937C7.44269 11.7685 9.12919 14.4975 11.8003 15.5473C14.0202 16.4198 14.4721 16.2463 14.9538 16.2026C15.4356 16.159 16.5087 15.5691 16.7277 14.9576C16.9467 14.346 16.9467 13.8217 16.881 13.7122C16.8152 13.6031 16.6399 13.5376 16.3772 13.4067C16.1144 13.2756 14.8264 12.6313 14.5854 12.5437C14.3445 12.4565 14.1694 12.4128 13.9941 12.6751C13.8188 12.937 13.3027 13.5427 13.1493 13.7175C12.9962 13.8924 12.8428 13.9144 12.5799 13.7833C12.3171 13.6518 11.4793 13.3704 10.4754 12.4783C9.69405 11.7839 9.15183 10.8984 8.99846 10.6363C8.84527 10.3743 8.98214 10.2325 9.11392 10.1018C9.23202 9.98457 9.39153 9.82418 9.52296 9.67134C9.65421 9.51833 9.69159 9.40918 9.77933 9.23441C9.86689 9.05963 9.82302 8.90662 9.75739 8.77571C9.69159 8.64463 9.18727 7.34944 8.95354 6.83144H8.95371C8.75683 6.3952 8.54959 6.38046 8.36236 6.37274Z" fill="#FF824D"/>
</svg>
